<?xml version="1.0" encoding="UTF-8" standalone="no"?>
<!-- Generator: Adobe Illustrator 25.4.1, SVG Export Plug-In . SVG Version: 6.00 Build 0)  -->
<svg xmlns:dc="http://purl.org/dc/elements/1.1/" xmlns:cc="http://creativecommons.org/ns#" xmlns:rdf="http://www.w3.org/1999/02/22-rdf-syntax-ns#" xmlns:svg="http://www.w3.org/2000/svg" xmlns="http://www.w3.org/2000/svg" xmlns:sodipodi="http://sodipodi.sourceforge.net/DTD/sodipodi-0.dtd" xmlns:inkscape="http://www.inkscape.org/namespaces/inkscape" version="1.1" id="Calque_1" x="0px" y="0px" viewBox="0 0 3061.42 3061.42" style="enable-background:new 0 0 3061.42 3061.42;" xml:space="preserve" sodipodi:docname="logo.svg" inkscape:version="0.92.3 (2405546, 2018-03-11)"><metadata id="metadata1869"><rdf:RDF><cc:Work rdf:about=""><dc:format>image/svg+xml</dc:format><dc:type rdf:resource="http://purl.org/dc/dcmitype/StillImage"/></cc:Work></rdf:RDF></metadata><defs id="defs1867"/><sodipodi:namedview pagecolor="#ffffff" bordercolor="#666666" borderopacity="1" objecttolerance="10" gridtolerance="10" guidetolerance="10" inkscape:pageopacity="0" inkscape:pageshadow="2" inkscape:window-width="1279" inkscape:window-height="1416" id="namedview1865" showgrid="false" inkscape:zoom="0.077088412" inkscape:cx="-726.43863" inkscape:cy="1530.71" inkscape:window-x="1280" inkscape:window-y="0" inkscape:window-maximized="0" inkscape:current-layer="Calque_1"/>
<style type="text/css" id="style1798">
  .st0{fill:#1E1E1C;}
  .st1{fill:#8A5FA4;}
  .st2{fill:#E7344D;}
  .st3{fill:#F29225;}
  .st4{fill:#14BAED;}
  .st5{fill:#81C18F;}
  .st6{fill:#FFE72F;}
</style>

<g id="g1685" transform="matrix(45.401709,0,0,45.401709,12032.655,-11157.555)"><g transform="matrix(0.35277777,0,0,-0.35277777,-218.48261,283.85167)" id="g896"><path inkscape:connector-curvature="0" id="path898" style="fill:#7e52ae;fill-opacity:1;fill-rule:nonzero;stroke:none" d="m 0,0 c -3.206,-1.422 -6.338,-5.323 -5.759,-9.656 0.67,-5.026 5.841,-6.965 6.534,-7.212 0.808,-0.288 4.276,-1.523 7.532,0.611 3.283,2.152 5.209,6.98 3.877,11.123 C 10.49,0.133 4.3,1.907 0,0"/></g><g transform="matrix(0.35277777,0,0,-0.35277777,-258.67091,281.11563)" id="g900"><path inkscape:connector-curvature="0" id="path902" style="fill:#ee2850;fill-opacity:1;fill-rule:nonzero;stroke:none" d="m 0,0 c -3.505,-1.555 -6.929,-5.819 -6.296,-10.556 0.733,-5.494 6.386,-7.614 7.144,-7.884 0.883,-0.315 4.673,-1.665 8.233,0.668 3.59,2.352 5.695,7.63 4.238,12.16 C 11.468,0.145 4.701,2.085 0,0"/></g><g transform="matrix(0.35277777,0,0,-0.35277777,-248.07015,276.77914)" id="g904"><path inkscape:connector-curvature="0" id="path906" style="fill:#f68624;fill-opacity:1;fill-rule:nonzero;stroke:none" d="m 0,0 c -3.442,-1.511 -6.803,-5.658 -6.183,-10.263 0.72,-5.341 6.271,-7.403 7.015,-7.665 0.867,-0.306 4.59,-1.619 8.085,0.649 3.525,2.287 5.592,7.419 4.162,11.823 C 11.261,0.141 4.616,2.027 0,0"/></g><g transform="matrix(0.35277777,0,0,-0.35277777,-236.51629,287.19903)" id="g908"><path inkscape:connector-curvature="0" id="path910" style="fill:#4dc6f4;fill-opacity:1;fill-rule:nonzero;stroke:none" d="m 0,0 c -3.486,-1.463 -6.89,-5.478 -6.262,-9.938 0.73,-5.171 6.352,-7.167 7.105,-7.421 0.878,-0.296 4.648,-1.568 8.188,0.629 3.57,2.214 5.663,7.183 4.215,11.447 C 11.405,0.137 4.675,1.963 0,0"/></g><g transform="matrix(0.35277777,0,0,-0.35277777,-229.33832,277.11442)" id="g912"><path inkscape:connector-curvature="0" id="path914" style="fill:#73cd87;fill-opacity:1;fill-rule:nonzero;stroke:none" d="m 0,0 c -3.285,-1.434 -6.493,-5.368 -5.901,-9.738 0.688,-5.068 5.985,-7.024 6.695,-7.273 0.828,-0.29 4.38,-1.536 7.716,0.616 3.364,2.17 5.337,7.039 3.972,11.218 C 10.747,0.134 4.406,1.924 0,0"/></g><g transform="matrix(0.35277777,0,0,-0.35277777,-206.66275,273.72582)" id="g916"><path inkscape:connector-curvature="0" id="path918" style="fill:#fee927;fill-opacity:1;fill-rule:nonzero;stroke:none" d="m 0,0 c -3.559,-1.461 -7.036,-5.47 -6.394,-9.922 0.744,-5.164 6.485,-7.157 7.255,-7.411 0.896,-0.295 4.746,-1.565 8.361,0.628 3.646,2.211 5.783,7.172 4.304,11.43 C 11.646,0.137 4.774,1.96 0,0"/></g><g transform="matrix(0.35277777,0,0,-0.35277777,-257.03324,284.8508)" id="g920"><path inkscape:connector-curvature="0" id="path922" style="fill:#231f20;fill-opacity:1;fill-rule:nonzero;stroke:none" d="m 0,0 c -2.423,1.028 -4.037,3.45 -4.037,6.167 v 43.092 c 0,1.101 0.881,1.982 1.982,1.982 1.101,0 1.982,-0.881 1.982,-1.982 V 6.167 c 0,-1.175 0.66,-2.13 1.615,-2.57 C 2.276,3.23 2.79,2.569 2.79,1.762 2.79,0.294 1.248,-0.587 0,0"/></g><g transform="matrix(0.35277777,0,0,-0.35277777,-257.03324,284.8508)" id="g924"><path inkscape:connector-curvature="0" id="path926" style="fill:#231f20;fill-opacity:1;fill-rule:nonzero;stroke:none" d="m 0,0 c -2.423,1.028 -4.037,3.45 -4.037,6.167 v 43.092 c 0,1.101 0.881,1.982 1.982,1.982 1.101,0 1.982,-0.881 1.982,-1.982 V 6.167 c 0,-1.175 0.66,-2.13 1.615,-2.57 C 2.276,3.23 2.79,2.569 2.79,1.762 2.79,0.294 1.248,-0.587 0,0"/></g><g transform="matrix(0.35277777,0,0,-0.35277777,-245.72111,265.82476)" id="g928"><path inkscape:connector-curvature="0" id="path930" style="fill:#231f20;fill-opacity:1;fill-rule:nonzero;stroke:none" d="m 0,0 c 0,-0.734 0.587,-1.321 1.248,-1.321 0.734,0 1.321,0.587 1.321,1.321 0,0.734 -0.587,1.321 -1.321,1.321 C 0.587,1.321 0,0.734 0,0 m 1.248,-7.268 c 1.101,0 1.982,-0.881 1.982,-1.982 v -32.594 c 0,-1.102 -0.881,-1.982 -1.982,-1.982 -1.028,0 -1.909,0.88 -1.909,1.982 V -9.25 c 0,1.101 0.881,1.982 1.909,1.982 M -3.451,0 c 0,2.569 2.129,4.698 4.699,4.698 2.643,0 4.771,-2.129 4.771,-4.698 0,-2.643 -2.128,-4.772 -4.771,-4.772 -2.57,0 -4.699,2.129 -4.699,4.772"/></g><g transform="matrix(0.35277777,0,0,-0.35277777,-236.50546,291.00945)" id="g932"><path inkscape:connector-curvature="0" id="path934" style="fill:#231f20;fill-opacity:1;fill-rule:nonzero;stroke:none" d="m 0,0 c -2.423,1.028 -4.037,3.45 -4.037,6.167 v 43.092 c 0,1.101 0.881,1.982 1.982,1.982 1.101,0 1.982,-0.881 1.982,-1.982 V 6.167 c 0,-1.175 0.66,-2.13 1.615,-2.57 C 2.276,3.23 2.79,2.569 2.79,1.762 2.79,0.294 1.248,-0.587 0,0"/></g><g transform="matrix(0.35277777,0,0,-0.35277777,-228.20993,277.61611)" id="g936"><path inkscape:connector-curvature="0" id="path938" style="fill:#231f20;fill-opacity:1;fill-rule:nonzero;stroke:none" d="m 0,0 c 0,-2.936 2.349,-5.285 5.285,-5.285 2.937,0 5.286,2.349 5.286,5.285 0,2.937 -2.349,5.359 -5.286,5.359 C 2.349,5.359 0,2.937 0,0 m -3.965,0 c 0,5.139 4.112,9.25 9.25,9.25 5.065,0 9.25,-4.111 9.25,-9.25 0,-5.065 -4.185,-9.25 -9.25,-9.25 -5.138,0 -9.25,4.185 -9.25,9.25"/></g><g transform="matrix(0.35277777,0,0,-0.35277777,-216.84854,286.2381)" id="g940"><path inkscape:connector-curvature="0" id="path942" style="fill:#231f20;fill-opacity:1;fill-rule:nonzero;stroke:none" d="m 0,0 c -2.349,1.028 -4.037,3.45 -4.037,6.166 v 24.079 c 0,1.101 -0.882,1.982 -1.982,1.982 H -6.46 c -1.101,0 -1.982,0.881 -1.982,1.983 0,1.101 0.881,1.981 1.982,1.981 h 0.441 c 1.1,0 1.982,0.881 1.982,1.909 v 10.865 c 0,1.101 0.881,1.982 1.982,1.982 1.101,0 1.982,-0.881 1.982,-1.982 V 38.1 c 0,-1.028 0.881,-1.909 1.909,-1.909 h 0.66 c 1.102,0 1.982,-0.88 1.982,-1.981 0,-1.102 -0.88,-1.983 -1.982,-1.983 h -0.66 c -1.028,0 -1.909,-0.881 -1.909,-1.982 V 6.166 c 0,-1.174 0.66,-2.129 1.689,-2.569 C 2.276,3.23 2.79,2.569 2.79,1.762 2.79,0.293 1.322,-0.661 0,0"/></g><g transform="matrix(0.35277777,0,0,-0.35277777,-206.22192,279.08881)" id="g944"><path inkscape:connector-curvature="0" id="path946" style="fill:#231f20;fill-opacity:1;fill-rule:nonzero;stroke:none" d="M 0,0 C -1.322,1.321 -3.157,1.835 -4.992,1.468 -6.02,1.248 -6.901,0.661 -7.635,-0.073 v -0.074 c -0.587,-0.587 -0.22,-1.615 0.661,-1.615 h 6.24 C 0.22,-1.762 0.661,-0.661 0,0 M 3.523,-5.726 H -6.754 c -0.881,0 -1.395,-1.101 -0.807,-1.762 h 0.073 c 0.955,-1.028 2.349,-1.541 3.744,-1.541 1.395,0 2.716,0.513 3.744,1.541 0.661,0.661 1.835,0.734 2.496,0 L 2.79,-7.781 c 0.66,-0.661 0.66,-1.762 0,-2.496 -1.763,-1.689 -4.038,-2.717 -6.534,-2.717 -3.23,0 -6.24,1.689 -8.002,4.552 -0.44,0.807 -0.808,1.615 -1.028,2.496 -0.733,3.23 0.22,6.46 2.496,8.736 2.276,2.275 5.58,3.23 8.883,2.422 0.808,-0.22 1.615,-0.514 2.349,-0.954 2.863,-1.762 4.551,-4.772 4.551,-8.002 0,-1.101 -0.88,-1.982 -1.982,-1.982"/></g></g></svg>