<svg
    xmlns="http://www.w3.org/2000/svg"
    xmlns:xlink="http://www.w3.org/1999/xlink">
    <defs>
        <symbol viewBox="0 0 7.6 16.1" id="svg-arrow">
            <polyline points="0.8 0.6 6.3 8.3 0.8 15.5" fill="none" stroke-miterlimit="10" stroke-width="2"/>
        </symbol>
        <symbol viewBox="0 0 6.1 12" id="svg-arrow-2">
            <polygon points="4.5 12 0 6.2 4.4 0 6.1 1.2 2.5 6.2 6 10.8 4.5 12"/>
        </symbol>
        <symbol viewBox="0 0 9.1 20.2" id="svg-arrow-3">
            <polygon points="1.6 20.2 9.1 10.5 1.6 0 0 1.2 6.6 10.5 0 19 1.6 20.2"/>
        </symbol>
        <symbol stroke="none" viewBox="0 0 1000 1000" id="svg-audio">
            <path d="M465.6,112.6c-13.3-5.5-28.5-2.4-38.8,7.8L211.5,337.1H45.6c-19.8,0-35.6,15.9-35.6,35.6V630c0,19.7,15.9,35.6,35.6,35.6h165.1L427,882.3c6.8,6.8,16,10.5,25.2,10.5c4.5,0,9.3-0.9,13.6-2.7c13.4-5.5,22-18.5,22-32.9V145.5C487.8,131.1,479,118.1,465.6,112.6z"/>
            <path d="M836.5,500.4c0-133.5-79.3-253.7-202.2-306.4c-18.1-7.7-39.1,0.6-46.8,18.7c-7.8,18.1,0.6,39,18.7,46.8c96.7,41.4,159.1,136,159.1,240.9c0,104.5-62.1,198.8-158.3,240.3c-18,7.8-26.4,28.8-18.6,46.8c5.8,13.5,18.9,21.5,32.8,21.5c4.6,0,9.4-0.9,14-2.9C757.6,753.3,836.5,633.3,836.5,500.4z"/>
            <path d="M678.9,500.3c0-70.5-41.9-133.9-106.9-161.5c-18-7.5-39,0.8-46.6,18.9c-7.8,18.1,0.7,39,18.8,46.7c38.6,16.3,63.5,54,63.5,95.8c0,41.4-24.6,78.8-62.7,95.4c-18.1,7.8-26.3,28.8-18.6,46.8C532.1,656,545.2,664,559,664c4.7,0,9.6-0.9,14.2-3C637.4,633.2,678.9,570.1,678.9,500.3z"/>
            <path d="M694.9,52.9c-18.1-7.8-39.2,0.6-46.8,18.7c-7.8,18.1,0.6,39,18.7,46.8c153.1,65.7,252,215.6,252,382.1c0,165.8-98.5,315.4-251.1,381.3c-18.1,7.8-26.5,28.7-18.7,46.8c5.9,13.5,18.9,21.5,32.7,21.5c4.7,0,9.6-0.9,14.2-2.9C874.5,870,990,694.7,990,500.4C990,305.5,874.2,129.8,694.9,52.9z"/>
        </symbol>
        <symbol viewBox="0 0 10 12.6" id="svg-book">
            <path d="M9.7,12.6H1.4C0.6,12.6,0,12,0,11.2c0-0.1,0-0.1,0-0.2V2.1c0-0.2,0.1-0.3,0.3-0.3c0.1,0,0.2,0.2,0.2,0.3V11c0,0.6,0.3,1.1,0.9,1.1h8.1V3.4c0-0.1,0.1-0.2,0.2-0.2c0.2,0,0.3,0.1,0.3,0.2v9C10,12.5,9.9,12.6,9.7,12.6 M9.7,3.7H6.1c-0.2,0-0.3-0.1-0.3-0.3c0,0,0,0,0,0c0-0.1,0.1-0.2,0.3-0.2h3.1C9.1,2.7,9,2.3,9,1.8c0-0.4,0.1-0.9,0.2-1.3H1.7C1.1,0.5,0.6,1,0.5,1.6v0.5c0.1,0.6,0.6,1.1,1.2,1.1h1.2c0.1,0,0.3,0.1,0.3,0.2c0,0.2-0.1,0.3-0.3,0.3H1.7C0.8,3.7,0.1,3,0,2.1V1.6C0.1,0.7,0.8,0,1.7,0h8L10,0.2c0,0.1,0,0.2-0.1,0.2C9.6,0.8,9.5,1.3,9.5,1.8c0,0.5,0.1,1,0.4,1.4C10,3.3,10,3.4,10,3.5L9.7,3.7M9.2,2.1H1.6C1.4,2.1,1.3,2,1.3,1.8l0,0c0-0.1,0.1-0.2,0.3-0.2h7.6c0.2,0,0.3,0.1,0.3,0.2C9.5,2,9.4,2.1,9.2,2.1L9.2,2.1 M6.1,8.4H5.9L4.5,6.9L3.1,8.3H2.8c-0.1,0-0.2-0.1-0.2-0.2V1.8c0-0.1,0.2-0.2,0.3-0.2s0.3,0.1,0.3,0.2v5.7l1.1-1.1c0.1-0.1,0.3-0.1,0.4,0l1.1,1.1V1.8c0-0.1,0.1-0.2,0.3-0.2c0.1,0,0.2,0.1,0.2,0.2v6.4c0,0.1,0,0.2-0.1,0.2H6.1"/>
        </symbol>
        <symbol viewBox="0 0 30 14.9" id="svg-burger">
            <rect width="30" height="2.57"/>
            <rect y="6.2" width="30" height="2.57"/>
            <rect y="12.3" width="30" height="2.57"/>
        </symbol>
        <symbol viewBox="0 0 24 24" id="svg-check">
            <path d="M9 21.035l-9-8.638 2.791-2.87 6.156 5.874 12.21-12.436 2.843 2.817z"/>
        </symbol>
        <symbol viewBox="0 0 15.6 10.2" id="svg-check-2">
            <path d="M4.2,10.2,5,10,15.2,2.7a1,1,0,0,0,.4-.7.8.8,0,0,0-.2-.8L14.9.5a1.2,1.2,0,0,0-.7-.5,1.1,1.1,0,0,0-.8.2L4.9,6.3,2.7,3.2A1.1,1.1,0,0,0,1.2,3l-.8.5a1.6,1.6,0,0,0-.4.7A1.1,1.1,0,0,0,.2,5L3.5,9.7A1.5,1.5,0,0,0,4.2,10.2Z"/>
        </symbol>
        <symbol viewBox="0 0 12.7 12.9" id="svg-cross">
            <path d="M12.3,10.3,8.5,6.5l3.8-3.8a1.4,1.4,0,0,0,0-1.9L11.9.4a1.2,1.2,0,0,0-1.8,0L6.4,4.1,2.7.4a1.3,1.3,0,0,0-1-.4A1.1,1.1,0,0,0,.8.4L.4.8a1.3,1.3,0,0,0,0,1.8L4.2,6.5.4,10.3a1.1,1.1,0,0,0-.4.9,1.3,1.3,0,0,0,.4,1l.4.3a1.1,1.1,0,0,0,.9.4,1.3,1.3,0,0,0,1-.4L6.3,8.8l3.8,3.7a1,1,0,0,0,.9.4,1,1,0,0,0,.9-.4l.4-.3a1.3,1.3,0,0,0,.4-1A1.2,1.2,0,0,0,12.3,10.3Z"/>
        </symbol>
        <symbol viewBox="0 0 23 23.1" id="svg-cross-2">
            <rect x="-3.5" y="10.3" transform="matrix(0.7071 -0.7071 0.7071 0.7071 -4.7945 11.5255)" width="30" height="2.6"/>
            <rect x="10.2" y="-3.5" transform="matrix(0.7071 -0.7071 0.7071 0.7071 -4.7698 11.5152)" width="2.6" height="30"/>
        </symbol>
        <symbol viewBox="0 0 12.4 12.4" id="svg-cross-3">
            <line x1="0.7" y1="0.9" x2="11.7" y2="11.5" fill="none" stroke="#000" stroke-miterlimit="10" stroke-width="2"/>
            <line x1="11.5" y1="0.7" x2="0.9" y2="11.7" fill="none" stroke="#000" stroke-miterlimit="10" stroke-width="2"/>
        </symbol>
        <symbol viewBox="0 0 12.4 12.4" id="svg-cross-4">
            <line x1="0.7" y1="0.9" x2="11.7" y2="11.5" fill="none" stroke-miterlimit="10" stroke-width="2"/>
            <line x1="11.5" y1="0.7" x2="0.9" y2="11.7" fill="none" stroke-miterlimit="10" stroke-width="2"/>
        </symbol>
        <symbol viewBox="0 0 47.6 12.2" id="svg-dots">
            <path fill="#04baee" d="M3.7,1c-2,.9-4,3.2-3.7,5.8s3.8,4.3,4.2,4.4A5.6,5.6,0,0,0,9,10.8a6,6,0,0,0,2.5-6.7C10.4.9,6.5-.1,3.7,1Z"/>
            <path fill="#f29224" d="M21.5.5a6.4,6.4,0,0,0-3.9,6.4c.5,3.4,4,4.7,4.4,4.9a5.9,5.9,0,0,0,5.1-.4,6.9,6.9,0,0,0,2.6-7.5C28.6.4,24.4-.8,21.5.5Z"/>
            <path fill="#88579e" d="M40,1a6.1,6.1,0,0,0-3.5,5.8c.4,3,3.5,4.2,4,4.3a4.8,4.8,0,0,0,4.5-.3,6.1,6.1,0,0,0,2.3-6.7A5.4,5.4,0,0,0,40,1Z"/>
        </symbol>
        <symbol viewBox="0 0 31.6 26.7" id="svg-heart">
            <path stroke-miterlimit="10" d="M23,.5a8.1,8.1,0,0,1,5.7,2.3,9,9,0,0,1,1.7,2.6,6.7,6.7,0,0,1,.7,3.1,12.2,12.2,0,0,1-.7,3.8,14.8,14.8,0,0,1-1.7,3.3,14.2,14.2,0,0,1-2.5,3,22.7,22.7,0,0,1-2.8,2.6,41.7,41.7,0,0,1-7.6,5,42.5,42.5,0,0,1-7.7-5,33.2,33.2,0,0,1-2.8-2.6,17.6,17.6,0,0,1-2.4-3,14.8,14.8,0,0,1-1.7-3.3A9.9,9.9,0,0,1,.5,8.5a8.1,8.1,0,0,1,.6-3.1A9,9,0,0,1,2.8,2.8,9,9,0,0,1,5.4,1.1,8.1,8.1,0,0,1,8.5.5a5.9,5.9,0,0,1,2.3.4,7.2,7.2,0,0,1,2.1,1.2,6.1,6.1,0,0,1,1.6,1.6,8.6,8.6,0,0,1,1.3,2,8.2,8.2,0,0,1,1.2-2,8.5,8.5,0,0,1,1.7-1.6,8.2,8.2,0,0,1,2-1.2A5.9,5.9,0,0,1,23,.5Z"/>
        </symbol>
        <symbol viewBox="0 0 100.6 75.9" id="svg-icon-1">
            <path fill="#4ad9d9" d="M36.4,3.1C23.2,9,10.4,25.3,12.8,43.3c2.7,20.9,23.9,29,26.8,30s17.5,6.4,30.9-2.5S91.8,41.7,86.4,24.5C79.4,2.5,54-4.8,36.4,3.1Z"/>
            <path fill="#fcc200" d="M65.1,40.9c3.2-3.5,9.5-5.8,14.8-3.2s6.2,10.6,6.2,11.6.1,6.1-4.1,9.4a13.7,13.7,0,0,1-15.8.1C60.3,54.3,60.7,45.6,65.1,40.9Z"/>
            <path fill="#e6334c" d="M81.3,26.9c1,2.9.3,7.4-2.9,9.6s-8.1.4-8.7.1a7.3,7.3,0,0,1-4.2-5.3,8.9,8.9,0,0,1,5-9.3C75,19.9,79.9,22.9,81.3,26.9Z"/>
            <path fill="#ffffff" d="M69.5,27.7a1.4,1.4,0,0,1,1.4-.3,1.4,1.4,0,0,1,.6,1.2,1.1,1.1,0,0,1-.4.9,1.4,1.4,0,0,1-1.5,0A1.2,1.2,0,0,1,69.5,27.7Z"/>
            <path fill="#1d1d1b" d="M70,28.2a.6.6,0,0,1,.6-.1c.2.1.2.4.2.4a.4.4,0,0,1-.2.4.5.5,0,0,1-.5,0C69.8,28.7,69.9,28.4,70,28.2Z"/>
            <path fill="#ffffff" d="M76.9,27.7a1.4,1.4,0,0,1,1.4-.3,1.4,1.4,0,0,1,.6,1.2,1.1,1.1,0,0,1-.4.9,1.4,1.4,0,0,1-1.5,0A1.2,1.2,0,0,1,76.9,27.7Z"/>
            <path fill="#1d1d1b" d="M77.4,28.2a.6.6,0,0,1,.6-.1c.2.1.2.4.2.4a.6.6,0,0,1-.1.4.6.6,0,0,1-.6,0A.6.6,0,0,1,77.4,28.2Z"/>
            <path fill="#fcc200" d="M82,42.5c-.2,0-.5-.2-.5-.4s.1-.5.4-.6a125.7,125.7,0,0,1,17.3-2.1l-3.8-6.7h-.2l-.8.2a1.3,1.3,0,0,1-1-.7,1.1,1.1,0,0,1,0-1.1c0-.1-.1-.1-.1-.2a.4.4,0,0,1,0-.5l.3-.3v-.4a.4.4,0,0,1,.1-.3,2.4,2.4,0,0,1,.3-1.2.6.6,0,0,1,.7-.2.5.5,0,0,1,.2.6.8.8,0,0,1-.1.4c.1,0,.2.2.2.3h.7a.5.5,0,0,1,.3.5v.5a3.1,3.1,0,0,1-.2.8.3.3,0,0,1,.1.2l4.6,8a.4.4,0,0,1,0,.5l-.4.2a121.2,121.2,0,0,0-18,2.2Z"/>
            <path fill="#fcc200" d="M55.8,44.8a13.8,13.8,0,0,1-5.3-.9.5.5,0,0,1-.3-.3.6.6,0,0,1,.1-.4l5.5-9-.6-.2a1.4,1.4,0,0,1-.9-1.2.4.4,0,0,1,.1-.3L55,32c0-.1.1-.1.1-.2a1.3,1.3,0,0,1,1.4-.7h.2a1.3,1.3,0,0,1,.6,1c.1.1.1.1.1.2s.1-.1.2,0a.7.7,0,0,1,.6.4.7.7,0,0,1-.1.9l-.3.2-.8.3-5.6,9c2.8.9,5.9.6,8.7.3l4.8-.5a.6.6,0,0,1,.6.5.5.5,0,0,1-.5.5l-4.8.5A31.5,31.5,0,0,1,55.8,44.8Z"/>
            <path style="fill:none;stroke:#fff;stroke-linecap:round;stroke-linejoin:round;stroke-width:0.75px;" d="M71.3,33.1a4.7,4.7,0,0,0,2.8,1.4,3.7,3.7,0,0,0,1.5-.1,1.4,1.4,0,0,0,.9-1.2"/>
            <polygon fill="#dddb00" points="56 25.6 56.1 40.9 74.6 40.3 75.2 26 56 25.6"/>
            <path fill="#dddb00" d="M75.8,26l-.3,14.1,20.1.6s-.8-14.3-.8-14.7S75.8,26,75.8,26Z"/>
            <polygon fill="#2dab66" points="74.2 25.4 73.9 40.5 76.5 40.4 76.7 25.7 74.2 25.4"/>
            <path fill="#ffe02d" d="M26.8,15.1c2.6,2.5,4.4,7.4,2.4,11.5s-8.2,4.9-9,4.9A9,9,0,0,1,13,28.3,10.5,10.5,0,0,1,13,16C16.4,11.4,23.2,11.7,26.8,15.1Z"/>
            <path fill="#88579e" d="M6.6,40.9c2.2-5.1,8.3-10.2,15.1-9.3s11,9.1,11.4,10.2,2.5,6.7-.8,11.9A15.9,15.9,0,0,1,15,60.1C6.7,57.5,3.8,47.8,6.6,40.9Z"/>
            <path fill="#ffffff" d="M15.7,19.2a1.7,1.7,0,0,1,1.9-.5,1.9,1.9,0,0,1,.9,1.6,1.4,1.4,0,0,1-.6,1.2,1.7,1.7,0,0,1-2.1,0A1.5,1.5,0,0,1,15.7,19.2Z"/>
            <path fill="#1d1d1b" d="M16.4,19.8c.2-.1.5-.3.8-.1s.3.5.3.5a.6.6,0,0,1-.2.5.6.6,0,0,1-.8,0A.6.6,0,0,1,16.4,19.8Z"/>
            <path fill="#ffffff" d="M23.2,19.2a1.9,1.9,0,0,1,2-.5,1.7,1.7,0,0,1,.8,1.6,1.6,1.6,0,0,1-.5,1.2,1.7,1.7,0,0,1-2.1,0A1.6,1.6,0,0,1,23.2,19.2Z"/>
            <path fill="#1d1d1b" d="M24,19.8c.2-.1.5-.3.7-.1s.3.5.3.5a.6.6,0,0,1-.2.5.5.5,0,0,1-.7,0A.6.6,0,0,1,24,19.8Z"/>
            <path fill="#ffffff" d="M21.1,27.8c-1.7,0-3.3-1.1-3.4-2.4s0-.2.2-.2.2,0,.2.1,1.6,2.2,3.1,2.1a3.1,3.1,0,0,0,2.3-1,1.8,1.8,0,0,0,.5-1.3.2.2,0,0,1,.2-.2c.1-.1.2,0,.2.1a2.5,2.5,0,0,1-.6,1.6,3.6,3.6,0,0,1-2.6,1.2Z"/>
            <polygon fill="#caba9f" points="4 23.9 4.5 44.3 19.8 44.2 20.1 24.2 4 23.9"/>
            <path fill="#caba9f" d="M35.5,44.3l-.2-20.1H20.2s-.4,19.9,0,19.9Z"/>
            <path fill="#88579e" d="M31.4,50.1c-.1,0-.1-.1-.2-.2s0-.2.1-.3a16.3,16.3,0,0,0,3.5-3.9,15.3,15.3,0,0,1,4.1-4.3h0c-.6-1.3-1.2-2.8-1.8-4.3l-1.5-3.4H34.5c-.5-.1-.6-.4-.6-.5l-.6-.2h-.2v-.2a2.4,2.4,0,0,1,.6-.8h0v-.3h0c0-.1-.1-.3,0-.4a.2.2,0,0,1,.2-.2H34c0-.1,0-.2.1-.2h.5a.1.1,0,0,1,.1-.1h-.5a.4.4,0,0,1-.1-.3,2,2,0,0,1,1.2-.8.3.3,0,0,1,.3.3q0,.1-.3.3h.1l.9-.4c.1-.1.2,0,.3,0v.3l-.3.4.4.3c.1,0,.1.1.1.2a.2.2,0,0,1-.2.2l-.6.2v.2h0c.1.1,0,.2,0,.3a.4.4,0,0,1-.1.3c.1.1.2.2.2.3a.6.6,0,0,1,.1.7c0,.1-.1.2-.1.3l1.5,3.5c.6,1.4,1.2,2.8,1.7,4.2h.1a.2.2,0,0,1,.2.2s.1.5-.2.5-.1.1-.2,0h0c-1.7.9-2.8,2.5-4,4.1a15.4,15.4,0,0,1-3.6,4Zm3.1-17h.1a1,1,0,0,0,.8.1.4.4,0,0,0-.1-.3Zm-.8-.6h.1A.1.1,0,0,1,33.7,32.5Zm.3-.3Zm1.9-1.6h0Z"/>
            <path fill="#88579f" d="M31.4,50.3l-.4-.2c0-.1-.1-.3,0-.4a.4.4,0,0,1,.1-.3,14.2,14.2,0,0,0,3.5-3.8,16.8,16.8,0,0,1,4.1-4.3l-1.8-4.1h-.1a30.5,30.5,0,0,0-1.3-3.2,1.8,1.8,0,0,1-1-.1c-.6-.1-.8-.3-.8-.6h-.5a.2.2,0,0,1-.2-.2.6.6,0,0,1-.1-.4,2.4,2.4,0,0,1,.6-.8v-.2h0a.4.4,0,0,1,0-.5.3.3,0,0,1,.3-.3c0-.1.1-.1.2-.2a.6.6,0,0,1-.1-.4,1.8,1.8,0,0,1,1.4-.9h.3c.1.1.2.2.2.3h.4c.2-.1.4-.1.5.1a.5.5,0,0,1,.1.6h-.2l.2.2a.4.4,0,0,1,.2.4.4.4,0,0,1-.3.4h-.4a.4.4,0,0,1-.1.3v.3c0,.1.1.1.1.2a1,1,0,0,1,.1.9c0,.1,0,.2-.1.2s1,2.4,1.5,3.4,1.1,2.8,1.7,4.1.3.2.3.4.1.6-.4.8h-.1a12.8,12.8,0,0,0-3.9,4.1,20,20,0,0,1-3.7,4Zm4.2-16.9a.2.2,0,0,1,.2.2,32.7,32.7,0,0,1,1.4,3.3h.1c.6,1.5,1.2,3,1.8,4.3s.1.3,0,.3A13,13,0,0,0,35,45.9a19.2,19.2,0,0,1-3.6,3.9h0A14.8,14.8,0,0,0,35,45.9a13.7,13.7,0,0,1,4.1-4.2h.2c.1,0,.1-.2.1-.3h-.3c-.6-1.4-1.2-2.8-1.7-4.2l-1.5-3.5c-.1-.1,0-.2,0-.3a.1.1,0,0,0,.1-.1.6.6,0,0,0,0-.6.2.2,0,0,1-.2-.2.3.3,0,0,1-.1-.2c0-.1.1-.2.1-.3v-.2h0v-.2c0-.1,0-.2.2-.3h.6l-.4-.2v-.4l.3-.3h0l-.9.3H35c-.1,0-.1-.1-.2-.2l.2-.2h.4a1.1,1.1,0,0,0-1.1.6h.6a.4.4,0,0,1-.1.3h-.6a.2.2,0,0,1-.2.2h-.1v.3h0v.2h0c0,.1,0,.2-.1.2a2.2,2.2,0,0,0-.5.8h.6c.1.1.2.1.2.2s.2.4.5.4a1.7,1.7,0,0,0,1,0Zm-.4,0h-.8c-.1-.1-.2-.2-.1-.3s.1-.1.2-.1l.8-.2a.2.2,0,0,1,.2.2v.2c.1.1.1.1,0,.2a.1.1,0,0,1-.1.1Zm-1.4-.7h-.3c0-.1,0-.1.1-.2h.3a.1.1,0,0,1,.2,0c.1,0,.1.1.1.2v.2H34v.2Zm.2-.5h0Zm0,0Zm1.8-1.3h-.2a.4.4,0,0,1,.1-.3H36c.1,0,.1.1.1.2s0,.1-.1.2h-.2Z"/>
            <polygon fill="#a3897a" points="19.3 24.1 19.1 44.2 21.2 44.2 20.9 24.2 19.3 24.1"/>
            <path fill="#88579e" d="M6.2,49.5H6L3.5,47.5.9,45.6a2.3,2.3,0,0,1-.5-1.1.3.3,0,0,1-.1-.2,2.2,2.2,0,0,1,.1-1.4,18.3,18.3,0,0,1,1.4-3.2c.1-.2.1-.4.2-.6a5.1,5.1,0,0,0,.7-1.5,1.4,1.4,0,0,0,.2-.6,5.6,5.6,0,0,1,.4-1.2h0a.2.2,0,0,1,0-.3H3.2a.2.2,0,0,1-.2-.2.4.4,0,0,1,.1-.3H2.8a.2.2,0,0,1,0-.3,4.8,4.8,0,0,1,1.1-.9c.2-.1.4,0,.5,0a.2.2,0,0,1,0,.3.2.2,0,0,1-.2.2c-.1.1-.1,0-.2,0l-.4.4.7-.2h.6c.1-.1.2,0,.3.1s0,.3-.2.3H5a.1.1,0,0,1,.1.1A.2.2,0,0,1,5,35h.3c.1.1.1.3,0,.3l-.2.2c0,.1,0,.1-.1.2h.1a.2.2,0,0,1,.3.1.2.2,0,0,1,0,.3l-.3.2a.1.1,0,0,1,.1.1c0,.1,0,.2-.1.2a2.3,2.3,0,0,1-1.4.4c-.1,0-.2,0-.2-.1s-.1.1-.1.2-.1.4-.2.6a11.1,11.1,0,0,1-.7,1.6l-.3.5A30.5,30.5,0,0,0,.9,43.1a1.8,1.8,0,0,0-.1,1v.2a7.9,7.9,0,0,0,.4.9l2.6,1.9L6.3,49a.2.2,0,0,1,.1.4ZM3.6,36.4a.4.4,0,0,1-.1.3h.1l.4-.2c-.1,0-.1,0-.1-.1Z"/>
            <path fill="#88579f" d="M6.2,49.7H5.9L3.4,47.7A24.8,24.8,0,0,1,.8,45.8a3.4,3.4,0,0,1-.6-1.2v-.2a2.8,2.8,0,0,1,.1-1.6,22.2,22.2,0,0,1,1.4-3.2.8.8,0,0,1,.2-.5h.1a8.4,8.4,0,0,0,.6-1.4,1.4,1.4,0,0,0,.2-.6,3.6,3.6,0,0,1,.4-1.1h0c-.1-.1-.1-.1-.1-.2s-.2-.2-.2-.3a.2.2,0,0,1,0-.3.2.2,0,0,1-.2-.2.4.4,0,0,1,0-.5,5.8,5.8,0,0,1,1.2-1,.8.8,0,0,1,.7,0,.7.7,0,0,1,.2.6h.1a.5.5,0,0,1,.6.2.7.7,0,0,1-.1.5v.2c.1.1.2.1.2.2a.5.5,0,0,1-.1.6.2.2,0,0,1,.2.2.5.5,0,0,1-.1.6H5.4a.5.5,0,0,1-.2.4,2.7,2.7,0,0,1-1.5.5.1.1,0,0,1-.1-.1c-.1.2-.1.4-.2.6a11.1,11.1,0,0,1-.7,1.6l-.3.5c-.5,1-.9,2.1-1.3,3.1s-.2.7-.1.9,0,.2.1.2a2.5,2.5,0,0,0,.3.8,20.7,20.7,0,0,0,2.5,1.9c.8.6,1.7,1.2,2.6,2s.1.2.2.3l-.2.3C6.5,49.6,6.3,49.7,6.2,49.7ZM3.4,35.2h.2a.4.4,0,0,1-.1.3h0a.2.2,0,0,1,0,.3,5.6,5.6,0,0,0-.4,1.2,1.4,1.4,0,0,1-.2.6,5.1,5.1,0,0,1-.7,1.5h0c-.1.2-.2.3-.2.5A18.3,18.3,0,0,0,.6,43a1.6,1.6,0,0,0-.1,1.2v.2h0c.1.4.3.9.5,1a13.8,13.8,0,0,0,2.5,1.9l2.6,1.9h0L3.6,47.3,1.1,45.4a8.1,8.1,0,0,1-.5-1v-.2c-.2-.4,0-.8.1-1.2A30.5,30.5,0,0,1,2,39.8l.3-.5A7.7,7.7,0,0,0,3,37.7c.1-.2.1-.4.2-.6v-.2a.1.1,0,0,0,.1-.1v-.2a.3.3,0,0,0,.1-.2c.1-.1.1-.2.3-.2H4a.2.2,0,0,1,.2.2c0,.1,0,.1-.1.2l-.4.2h0A3.1,3.1,0,0,0,5,36.6a.3.3,0,0,1-.1-.2.3.3,0,0,1,.1-.2c.1-.1.2-.1.2-.2v0H4.8v-.2c0-.1.1-.2.1-.3h.2l-.3.2-.3-.2c-.1-.1,0-.2.1-.2l.3-.2c-.1,0-.1-.1-.1-.2s0-.2.1-.2l.3-.2H5l-.6.2H3.6a.2.2,0,0,1-.2-.2c-.1,0-.1-.1,0-.2l.5-.4h.3c.1-.1,0-.1,0-.1s-.1-.1-.2,0a2.8,2.8,0,0,0-1,.9v.2H3v-.2h.2l.2.2c0,.1,0,.2-.1.2h.1Z"/>
        </symbol>
        <symbol viewBox="0 0 102.5 52.9" id="svg-icon-10">
            <path d="M65,34.6c-.1-.3-.5-.5-.9-.6-5.8-1.8-10.2-6.3-14.5-10.7l.3-.3" fill="none" stroke="#f29100" stroke-linecap="round" stroke-linejoin="round"/>
            <path d="M55.8,7.9c2.6,2.5,4.3,7.4,2.3,11.4s-8,4.8-8.8,4.8A8.6,8.6,0,0,1,42.2,21a10.5,10.5,0,0,1,0-12.2C45.6,4.3,52.2,4.6,55.8,7.9Z" fill="#0eb8ec"/>
            <path d="M36,33.4c2.1-5.1,8-10,14.7-9.2s10.9,8.9,11.3,10,2.5,6.6-.8,11.8a15.5,15.5,0,0,1-17,6.2C36,49.7,33.1,40.1,36,33.4Z" fill="#ffe62d"/>
            <path d="M44.8,12a1.9,1.9,0,0,1,2-.5,1.7,1.7,0,0,1,.8,1.6,1.6,1.6,0,0,1-.5,1.2,1.8,1.8,0,0,1-2.1,0A1.6,1.6,0,0,1,44.8,12Z" fill="#fff"/>
            <path d="M45.6,12.6a.5.5,0,0,1,.7-.1c.3.1.3.5.3.5a.6.6,0,0,1-.2.5.8.8,0,0,1-.8,0A.7.7,0,0,1,45.6,12.6Z" fill="#1d1d1b"/>
            <path d="M52.3,12a1.7,1.7,0,0,1,1.9-.5,1.7,1.7,0,0,1,.8,1.6,1.3,1.3,0,0,1-.5,1.2,1.8,1.8,0,0,1-2.1,0A1.6,1.6,0,0,1,52.3,12Z" fill="#fff"/>
            <path d="M53,12.6a.6.6,0,0,1,.8-.1c.3.1.3.5.3.5a.6.6,0,0,1-.2.5c-.2.1-.6.2-.8,0A.6.6,0,0,1,53,12.6Z" fill="#1d1d1b"/>
            <path d="M47,18.1c.1,1.2,1.7,2.3,3.3,2.2s3-1.3,2.9-2.5" fill="none" stroke="#fff" stroke-linecap="round" stroke-linejoin="round" stroke-width="0.5"/>
            <path d="M76.6,24.4a1,1,0,0,0-.9-.6,2.8,2.8,0,0,1,.4,2.2l-1.5-1.9a2.4,2.4,0,0,0,.9,1.3,2.2,2.2,0,0,0-1-1.3c-.1-.1-.2-.2-.3-.1s-.2.3-.1.5.8,1.3,1.3.9a4.9,4.9,0,0,0-.6-1.7.8.8,0,0,0-.5,1,1.6,1.6,0,0,0,.7.9,1.2,1.2,0,0,0,.1-1.7,2,2,0,0,0,1.8,1.5,5.8,5.8,0,0,0-2.5-1.5,1.7,1.7,0,0,0,.7,1.6,1.9,1.9,0,0,0-2-1.6,2.7,2.7,0,0,0,1.1,2,2.1,2.1,0,0,0-.7-1.1c-.2-.1-.3-.2-.4-.1s-.2.3-.2.5.3,1.2.9,1.2a.8.8,0,0,0,.5-1,1.9,1.9,0,0,0-.8-1c-.2.7.8,1.6,1.5,1.2a1.1,1.1,0,0,0-1.2-.8.8.8,0,0,0,1.1.6,1.4,1.4,0,0,0-.5-.8c.2.3-.1.7-.3,1l-6.2,6.9-.3.2-.4-.2c-2.9-2.2-7.2-1.7-10.3-3.7" fill="none" stroke="#ffe62d" stroke-linecap="round" stroke-linejoin="round"/>
            <path d="M66.6,28.7c3.5-3.8,10.4-6.3,16.1-3.5s6.8,11.5,6.8,12.6.1,6.7-4.5,10.3a14.9,14.9,0,0,1-17.2.1C61.3,43.3,61.8,33.8,66.6,28.7Z" fill="#f19124"/>
            <path d="M84.2,13.4c1.1,3.2.4,8.1-3.1,10.5s-8.8.5-9.5.1a8.2,8.2,0,0,1-4.5-5.8A9.8,9.8,0,0,1,72.4,8.1C77.3,5.8,82.7,9,84.2,13.4Z" fill="#87589e"/>
            <path d="M71.3,14.3a1.6,1.6,0,0,1,1.6-.3,1.3,1.3,0,0,1,.7,1.2,1.2,1.2,0,0,1-.4,1,1.5,1.5,0,0,1-1.7.1A1.4,1.4,0,0,1,71.3,14.3Z" fill="#fff"/>
            <path d="M72,14.9a.4.4,0,0,1,.6-.2.8.8,0,0,1,.2.5.4.4,0,0,1-.2.4H72A.5.5,0,0,1,72,14.9Z" fill="#1d1d1b"/>
            <path d="M79.4,14.3A1.6,1.6,0,0,1,81,14a1.3,1.3,0,0,1,.7,1.2,1.1,1.1,0,0,1-.5,1,1.5,1.5,0,0,1-1.7.1A1.5,1.5,0,0,1,79.4,14.3Z" fill="#fff"/>
            <path d="M80,14.9c.2-.2.4-.3.6-.2a.6.6,0,0,1,.3.5.4.4,0,0,1-.2.4h-.6C79.8,15.4,79.9,15.1,80,14.9Z" fill="#1d1d1b"/>
            <path d="M73.3,20.2a5.3,5.3,0,0,0,3.1,1.5,4.7,4.7,0,0,0,1.7-.1,1.4,1.4,0,0,0,.9-1.3" fill="none" stroke="#fff" stroke-linecap="round" stroke-linejoin="round" stroke-width="0.5"/>
            <polygon points="0 7 6.4 18.6 15.1 13.2 9.1 3.9 0 7" fill="#00a099"/>
            <polygon points="0.9 5.8 7.9 17.8 15 13.3 8.6 2.7 0.9 5.8" fill="#2dab66"/>
            <polygon points="31.4 2.3 37.3 0 38.5 12 32.4 12.1 31.4 2.3" fill="#fcea0d"/>
            <polygon points="31.3 2.4 32.2 13.7 39.5 12.9 38.8 1.3 31.3 2.4" fill="#f8b133"/>
            <path d="M35.6,10.8c.1.1.2,0,.1-.1s-.2,0-.2.1A5.8,5.8,0,0,0,34,11.9a4.9,4.9,0,0,0,2.7-.3,7,7,0,0,0-2.3,1.1,5.9,5.9,0,0,0,2.2-.5,10,10,0,0,0-1.9,1.2,5.9,5.9,0,0,0,2.3-.5,7.2,7.2,0,0,1-2.1,1.2,5.3,5.3,0,0,0,2.2-.2A7.2,7.2,0,0,1,35,15.1a2.6,2.6,0,0,0,1.7-.5h-.4l.5-.7-1.3.3,1.1-.8H34.9l1-1.1H34.8a.4.4,0,0,1,.5.5c0,.3-.2.5-.3.8a12.5,12.5,0,0,0-1,2.7,23.9,23.9,0,0,1-1.3,2.8,43.2,43.2,0,0,0-1.9,4.5,2.3,2.3,0,0,0-.2,1.6,2.4,2.4,0,0,0,.8.9l7,6.1" fill="none" stroke="#ffe62d" stroke-linecap="round" stroke-linejoin="round"/>
            <path d="M85.7,3.5s2.1,9.1,2.4,8.9,13.7-3.7,13.7-3.7L99.5.9Z" fill="#5bc4f1"/>
            <polygon points="85.3 4.6 87.6 12.9 102.5 9 99.9 0.2 85.3 4.6" fill="#009ee2"/>
            <path d="M81.1,31.4a6.9,6.9,0,0,0,3.1-1.5,49.2,49.2,0,0,0,6.9-6.8c2.7-3.4,5-7.6,4.6-12a4.8,4.8,0,0,0-.7-2,3.3,3.3,0,0,0,.1,2.9,2.2,2.2,0,0,0,.3-3.2,4,4,0,0,0-.4,2.4,3.2,3.2,0,0,0,.3-1.9,7.2,7.2,0,0,0-.6,2.9,1.9,1.9,0,0,0,.1-1.5c-.2-.4-.8-.8-1.2-.6s-.7,1-.2,1.2,1-.1,1.1-.6a2.2,2.2,0,0,0-.3-1.4,3.3,3.3,0,0,0,.4,3.3,3,3,0,0,0,0-2.3,3.4,3.4,0,0,0,.2,2l.3-2.4.7,1.8a3.6,3.6,0,0,0,.6-2v.2a10.9,10.9,0,0,1-.1,1.8" fill="none" stroke="#f29100" stroke-linecap="round" stroke-linejoin="round"/>
            <path d="M33.5,36.8c-1.6-3.8-6-7.5-10.8-6.8s-7.9,6.9-8.1,7.7a10.3,10.3,0,0,0,.6,9,11.2,11.2,0,0,0,12.6,4.6C33.7,49.3,35.7,41.9,33.5,36.8Z" fill="#80c08d"/>
            <path d="M21.6,18.1c-2.5,1-4.9,4-4.4,7.2s4.4,5.3,5,5.5a6.6,6.6,0,0,0,5.7-.5,7.6,7.6,0,0,0,3-8.4C29.6,18,24.8,16.6,21.6,18.1Z" fill="#e6334c"/>
            <path d="M20.5,22.8a1.1,1.1,0,0,1,1.3-.2,1.2,1.2,0,0,1,.6,1,1,1,0,0,1-.4.8,1.2,1.2,0,0,1-1.4,0A1.2,1.2,0,0,1,20.5,22.8Z" fill="#fff"/>
            <path d="M21,23.3a.4.4,0,0,1,.5-.1.4.4,0,0,1,.2.3.4.4,0,0,1-.1.3c-.2.2-.4.2-.5.1A.5.5,0,0,1,21,23.3Z" fill="#1d1d1b"/>
            <path d="M27.1,22.8a.9.9,0,0,1,1.2-.2,1,1,0,0,1,.6,1,1,1,0,0,1-.4.8,1.1,1.1,0,0,1-1.4-1.6Z" fill="#fff"/>
            <path d="M27.6,23.3c.1-.1.3-.2.4-.1a.4.4,0,0,1,.2.3.4.4,0,0,1-.1.3.3.3,0,0,1-.5.1C27.4,23.7,27.4,23.4,27.6,23.3Z" fill="#1d1d1b"/>
            <path d="M21.9,27.4c1.8,1.8,3.5.7,4.9-.1" fill="none" stroke="#fff" stroke-linecap="round" stroke-linejoin="round" stroke-width="0.5"/>
            <path d="M29.5,33.1a3.7,3.7,0,0,0,1.2-.7c1.4-1.3,2-3.3,2.6-5.3,1.4-4.2,2.7-8.5,2.5-13.2,0,.5.7.9,1,.6s.3-1,0-1.4A3.5,3.5,0,0,0,35,16.2a3.1,3.1,0,0,0,2.1-3.1,4,4,0,0,0-2.6,1.4.5.5,0,0,0,.8-.1.6.6,0,0,0-1.2.2,1.4,1.4,0,0,0,1.8-.1.7.7,0,1,0-.7-1.1,2,2,0,0,0-.6,1.1,1.8,1.8,0,0,0,1.2-2.3,1.1,1.1,0,0,0-.1.8c0,.3.4.6.6.3a.6.6,0,0,0-1-.1" fill="none" stroke="#80c08d" stroke-linecap="round" stroke-linejoin="round"/>
            <path d="M18.7,33.1a2.6,2.6,0,0,1-1.1-.7c-1.4-1.3-2.1-3.3-2.7-5.3-1.3-4.2-2.6-8.5-2.4-13.2,0,.5-.7.9-1,.6s-.3-1,0-1.4a3.4,3.4,0,0,1,1.7,3.1,3.1,3.1,0,0,1-2.1-3.1,3.8,3.8,0,0,1,2.6,1.4.4.4,0,0,1-.7-.1.6.6,0,0,1,1.2.2,1.5,1.5,0,0,1-1.9-.1,1.1,1.1,0,0,1-.2-.6.7.7,0,0,1,1-.5c.3.2.4.7.5,1.1a1.9,1.9,0,0,1-1.1-2.3,1.1,1.1,0,0,1,.1.8c-.1.3-.4.6-.6.3s.8-.4.9-.1" fill="none" stroke="#80c08d" stroke-linecap="round" stroke-linejoin="round"/>
        </symbol>
        <symbol viewBox="0 0 23.8 28.8" id="svg-icon-11">
            <path d="M16,1.5a6.2,6.2,0,0,1,1.4,6.9c-1.4,2.8-4.9,2.9-5.3,2.9A4.9,4.9,0,0,1,7.8,9.4a6.3,6.3,0,0,1-.1-7.3A5.7,5.7,0,0,1,16,1.5Z" fill="#ffe02d"/>
            <path d="M4,16.9c1.3-3,4.9-6,8.9-5.5s6.6,5.4,6.9,6.1a7.8,7.8,0,0,1-.5,7.1A9.6,9.6,0,0,1,8.9,28.4C4,26.9,2.2,21,4,16.9Z" fill="#88579e"/>
            <path d="M9.4,4a.9.9,0,0,1,1.1-.3,1,1,0,0,1,.5.9,1.1,1.1,0,0,1-.3.8,1.2,1.2,0,0,1-1.3,0A1,1,0,0,1,9.4,4Z" fill="#fff"/>
            <path d="M9.8,4.4c.1-.1.3-.2.4-.1a.4.4,0,0,1,.2.3.5.5,0,0,1-.1.3H9.8A.5.5,0,0,1,9.8,4.4Z" fill="#1d1d1b"/>
            <path d="M13.9,4a1,1,0,0,1,1.2-.3,1.1,1.1,0,0,1,.4.9c.1.1.1.5-.3.8a1.1,1.1,0,0,1-1.2,0A.9.9,0,0,1,13.9,4Z" fill="#fff"/>
            <path d="M14.3,4.4a.4.4,0,0,1,.5-.1l.2.3a.4.4,0,0,1-.2.3h-.4A.3.3,0,0,1,14.3,4.4Z" fill="#1d1d1b"/>
            <path d="M12.6,9.1c-1,0-2-.6-2-1.4s0-.2.1-.2h.1c0,.7.9,1.3,1.9,1.3A2,2,0,0,0,14,8.3c.3-.3.4-.6.3-.8h.3a1.2,1.2,0,0,1-.4.9,2,2,0,0,1-1.5.7Z" fill="#fff"/>
            <polygon points="2.4 6.8 2.7 19 11.9 18.9 12 7 2.4 6.8" fill="#caba9f"/>
            <path d="M21.2,19V7h-9s-.3,11.8,0,11.8Z" fill="#caba9f"/>
            <path d="M18.8,22.4h-.2a.3.3,0,0,1,.1-.2,9.3,9.3,0,0,0,2.1-2.3,8.5,8.5,0,0,1,2.5-2.5h0l-1.1-2.6-.9-2.1h-.7c-.3-.1-.4-.2-.4-.3h-.4l.3-.5h0V11h.3c.1-.3.4-.4.7-.5l.2.2c0,.1-.1.1-.2.1h0l.6-.2h.1v.2l-.2.2c.1,0,.1.1.2.2h-.4v.2h0v.4l.2.2a.3.3,0,0,1,0,.4v.2l.8,2.1c.4.8.7,1.7,1.1,2.4h0a.2.2,0,0,1,.2.2s0,.3-.2.3h-.1A8.2,8.2,0,0,0,21,20a9.8,9.8,0,0,1-2.1,2.4Zm1.8-10.1h0Zm-.4-.4Zm.1-.2h0Zm1.1-.9Z" fill="#88579e"/>
            <path d="M18.8,22.5h-.3V22a7.8,7.8,0,0,0,2.1-2.3,9.5,9.5,0,0,1,2.4-2.5c-.4-.8-.7-1.6-1.1-2.5h0l-.8-1.8h-.6l-.5-.3h-.3v-.2a.1.1,0,0,1,0-.2c0-.2.2-.3.3-.5h0V11l.2-.2c0-.1,0-.1.1-.1a.2.2,0,0,1,0-.3.9.9,0,0,1,.8-.5h.8a.6.6,0,0,1,.1.4h0c.1,0,.1.1.1.2l-.2.3h-.2c0,.1,0,.2-.1.2v.2h.1a1.3,1.3,0,0,1,.1.6h-.1l.9,2a24.4,24.4,0,0,0,1,2.4c.1,0,.2.1.2.3s0,.4-.2.4h-.1a8.2,8.2,0,0,0-2.4,2.5,8.4,8.4,0,0,1-2.2,2.4Zm2.5-10h.1a15.4,15.4,0,0,1,.8,1.9h.1a20.3,20.3,0,0,0,1.1,2.6c0,.1,0,.1-.1.2a8.2,8.2,0,0,0-2.4,2.5,9.3,9.3,0,0,1-2.1,2.3h0a8.1,8.1,0,0,0,2.1-2.4,8.2,8.2,0,0,1,2.4-2.5h.2v-.2h-.1c-.4-.8-.7-1.7-1.1-2.5l-.9-2.1h.1v-.4h-.1a.1.1,0,0,1-.1-.1v-.2h.4l-.2-.2h0c-.1,0,0-.1,0-.1v-.2h0l-.5.2h-.1a.7.7,0,0,0-.6.3h.3a.1.1,0,0,1,0,.2h-.5c-.1.1-.1.2,0,.2h0s-.1,0,0,.1h-.1l-.3.4h.5c0,.2.1.2.2.3Zm-.3,0h-.5c0-.1,0-.2.1-.2h.6v.2H21Zm-.8-.4h.3c0,.1-.1.1-.1.2h-.2Zm.1-.4h0Zm0,0Zm1.1-.7h-.1v-.2h.1Z" fill="#88579f"/>
            <polygon points="11.5 6.9 11.4 18.9 12.6 18.9 12.5 7 11.5 6.9" fill="#a3897a"/>
            <path d="M3.7,22.1a.1.1,0,0,1-.1-.1L2.1,20.9.5,19.7a1.6,1.6,0,0,1-.3-.6h0a1.4,1.4,0,0,1,.1-.9,7.7,7.7,0,0,1,.8-1.9v-.3a3.6,3.6,0,0,0,.4-.9c.1-.1.1-.2.1-.4l.3-.7H1.9c0-.1,0-.2.1-.2H1.8v-.2H1.7l.6-.6h.3v.2l-.2.2H2.4l-.3.2h1c0,.1,0,.2-.1.2H3a.1.1,0,0,1,0,.2h.2v.2h.1c.1.1.1.2,0,.2H3.1v.2l-.8.2H2a.6.6,0,0,1-.1.4l-.4.9-.2.3-.8,2c0,.2-.1.4,0,.6h0a2.6,2.6,0,0,0,.2.5l1.6,1.1,1.5,1.2c.1.1.1.1,0,.2ZM2.2,14.3h0Z" fill="#88579e"/>
            <path d="M3.7,22.2H3.5L2,21A7.9,7.9,0,0,1,.5,19.8c-.2-.1-.3-.3-.4-.7h0c-.2-.3,0-.7,0-.9s.5-1.3.8-2,.1-.1.2-.2h0a3.6,3.6,0,0,0,.4-.9.4.4,0,0,0,.1-.3,6.4,6.4,0,0,0,.2-.7h0v-.2c-.1-.1-.1-.1,0-.2H1.5a.4.4,0,0,1,.1-.3l.7-.6h.4c.1.1.1.2.1.4h0a.1.1,0,0,1,.1-.1l.3.2v.3h.1c.1.1,0,.3-.1.4h.2c0,.1,0,.3-.1.3a.1.1,0,0,1-.1.1h0a.4.4,0,0,1-.1.3l-.9.2H2.1a.4.4,0,0,1-.1.3,3,3,0,0,1-.4,1l-.2.3a10.7,10.7,0,0,0-.7,1.9c-.1.2-.2.4-.1.5h0l.2.5,1.5,1.1,1.6,1.2v.2c0,.1,0,.1-.1.2ZM2,13.5h.1c.1.1.1.1,0,.2h0V14a1.4,1.4,0,0,0-.2.7.4.4,0,0,0-.1.3,4.1,4.1,0,0,1-.5.9h0c0,.1-.1.2-.1.3a15.4,15.4,0,0,0-.8,1.9.9.9,0,0,0-.1.7h0c.1.2.2.6.3.6a16.7,16.7,0,0,0,1.6,1.2l1.5,1.1h0L2.2,20.8.7,19.6q-.1,0-.3-.6a.1.1,0,0,0-.1-.1,2,2,0,0,1,.1-.7c.3-.6.5-1.3.8-1.9l.2-.3a10.4,10.4,0,0,0,.4-1c0-.1.1-.2.1-.3H2v-.2h.4c.1,0,.1,0,.1.1H2.2l.8-.2c-.1-.1-.1-.1-.1-.2H2.7v-.2h.2s-.1-.1,0-.1V13H2v-.2l.3-.2h.1c-.2.2-.5.3-.6.6h.1c.1,0,.1,0,.1.1s0,.1,0,.1H2Z" fill="#88579f"/>
        </symbol>
        <symbol viewBox="0 0 45.6 45.7" id="svg-icon-12">
            <path d="M14.1,22.4c3.7-4,10.9-6.6,16.9-3.6s7.1,12,7.1,13.2.1,7-4.6,10.7a15.6,15.6,0,0,1-18.1.1C8.6,37.7,9.2,27.7,14.1,22.4Z" fill="#f19124"/>
            <path d="M32.6,6.4c1.2,3.3.4,8.4-3.2,11s-9.3.5-10,.1a8.6,8.6,0,0,1-4.8-6.1A10.3,10.3,0,0,1,20.3.8C25.4-1.6,31,1.8,32.6,6.4Z" fill="#87589e"/>
            <path d="M19.1,7.3A1.7,1.7,0,0,1,20.8,7a1.4,1.4,0,0,1,.7,1.3,1.2,1.2,0,0,1-.5,1,1.5,1.5,0,0,1-1.8.1A1.5,1.5,0,0,1,19.1,7.3Z" fill="#fff"/>
            <path d="M19.8,7.9a.6.6,0,0,1,.6-.1c.2.1.2.4.2.5a1,1,0,0,1-.1.4.9.9,0,0,1-.7,0A.5.5,0,0,1,19.8,7.9Z" fill="#1d1d1b"/>
            <path d="M27.6,7.3A1.5,1.5,0,0,1,29.2,7a1.4,1.4,0,0,1,.7,1.3,1,1,0,0,1-.4,1,1.5,1.5,0,0,1-1.8.1A1.4,1.4,0,0,1,27.6,7.3Z" fill="#fff"/>
            <path d="M28.2,7.9a.7.7,0,0,1,.6-.1.5.5,0,0,1,.3.5.6.6,0,0,1-.2.4.6.6,0,0,1-.6,0A.5.5,0,0,1,28.2,7.9Z" fill="#1d1d1b"/>
            <path d="M33.6,24.3A134.3,134.3,0,0,1,45.1,6.9l-11.4-2a1.3,1.3,0,0,0-.5-1.2,1.9,1.9,0,0,0-.7,2,4.5,4.5,0,0,0,2.3,0,1.6,1.6,0,0,0-1.4-.5c-.6.3-.3,1.3.3,1.4s1.2-.5,1.1-1.1a1.1,1.1,0,0,0-1.5-.7v1h1.2a2,2,0,0,0-1.1-1.9,1.7,1.7,0,0,0-.6,1,2.1,2.1,0,0,1-1.6-1.4A5.4,5.4,0,0,0,32.6,5c-.4.2-1.1-.5-.7-.9" fill="none" stroke="#f29100" stroke-linecap="round" stroke-linejoin="round"/>
            <path d="M14.9,23.1,9.7,25.2C6.3,26.5,2.8,28,.5,30.8l11.6,6.9a.9.9,0,0,0,1,.1c.3-.1,0-.8-.3-.5s-3,1.1-2.5,2a1.7,1.7,0,0,0,2.4-1.2,1.1,1.1,0,0,0-1.8.7,1.1,1.1,0,0,0,1.7.9,1.2,1.2,0,0,0-.3-1.4.7.7,0,0,0-.3,1.1l.6-.8" fill="none" stroke="#f29100" stroke-linecap="round" stroke-linejoin="round"/>
            <path d="M27.3,14a14,14,0,0,0-6.1.1" fill="none" stroke="#fff" stroke-linecap="round" stroke-linejoin="round" stroke-width="0.75"/>
        </symbol>
        <symbol viewBox="0 0 52.8 68.9" id="svg-icon-13">
            <polygon points="0 6.1 9 22.4 21.2 14.7 12.8 1.7 0 6.1" fill="#00a099"/>
            <polygon points="1.3 4.4 11.1 21.1 21.1 14.8 12.1 0 1.3 4.4" fill="#2dab66"/>
            <path d="M47.1,47.9c-2.3-5.4-8.4-10.6-15.3-9.6S20.8,48,20.4,49.2s-2.4,7.1,1,12.5,11,8.7,17.6,6.5C47.3,65.4,50.1,55.1,47.1,47.9Z" fill="#ffe62d"/>
            <path d="M30.2,21.6c-3.4,1.5-6.8,5.6-6.1,10.2s6.2,7.3,7,7.6a9.4,9.4,0,0,0,8.1-.6A10.6,10.6,0,0,0,43.3,27C41.5,21.4,34.9,19.6,30.2,21.6Z" fill="#f29224"/>
            <path d="M28.8,28.3a1.5,1.5,0,0,1,1.8-.4,1.6,1.6,0,0,1,.8,1.4,1.4,1.4,0,0,1-.5,1.1,1.6,1.6,0,0,1-2,0A1.5,1.5,0,0,1,28.8,28.3Z" fill="#fff"/>
            <path d="M29.5,28.9a.6.6,0,0,1,.7-.2.7.7,0,0,1,.3.6.6.6,0,0,1-.2.4c-.2.1-.5.2-.7,0A.5.5,0,0,1,29.5,28.9Z" fill="#1d1d1b"/>
            <path d="M38,28.3a1.5,1.5,0,0,1,1.8-.4,1.6,1.6,0,0,1,.7,1.4,1.4,1.4,0,0,1-.5,1.1,1.5,1.5,0,0,1-1.9,0A1.4,1.4,0,0,1,38,28.3Z" fill="#fff"/>
            <path d="M38.7,28.9a.5.5,0,0,1,.6-.2.7.7,0,0,1,.3.6.6.6,0,0,1-.2.4c-.2.1-.5.2-.7,0A.5.5,0,0,1,38.7,28.9Z" fill="#1d1d1b"/>
            <path d="M30.8,34.7c2.4,2.5,4.9.9,6.7-.2" fill="none" stroke="#fff" stroke-linecap="round" stroke-linejoin="round"/>
            <path d="M41.4,43.4a.6.6,0,0,1-.6-.4.7.7,0,0,1,.3-.9l1.5-.9c1.8-1.7,2.7-4.6,3.5-7.1a71.5,71.5,0,0,0,3.4-14.5h-.2a.7.7,0,0,1-.6-.1.7.7,0,0,1-.3-.6,5,5,0,0,1,.2-1.2,2.1,2.1,0,0,1-1.2-.5.7.7,0,0,1-.3-.6,1.4,1.4,0,0,1,1.2-1.3l.6-.7h0a1,1,0,0,1,.4-.5,2.9,2.9,0,0,1,.3-1,.8.8,0,0,1,.7-.4.6.6,0,0,1,.6.5,2.8,2.8,0,0,1,.1.9h.1v-.2H52a.7.7,0,0,1,.6.2.8.8,0,0,1,.2.5c0,.4-.1.8-.1,1.2a2.1,2.1,0,0,1-.4,1.1,5.2,5.2,0,0,1-1.4,1.9c-.3,5.6-2,10.9-3.4,15.7-.8,2.6-1.8,5.8-4,7.7a5.7,5.7,0,0,1-1.8,1.2Z" fill="#ffe62d"/>
            <path d="M26.3,43.4H26a9.4,9.4,0,0,1-1.8-1.2c-2.1-1.9-3.1-5.1-3.9-7.7-1.5-4.8-3.2-10.1-3.5-15.7a5.2,5.2,0,0,1-1.4-1.9,2,2,0,0,1-.3-1.1,5,5,0,0,1-.2-1.2.5.5,0,0,1,.3-.5c.1-.2.3-.2.5-.2h.8l.2.2h0a2.8,2.8,0,0,1,.1-.9.8.8,0,0,1,.7-.5,1,1,0,0,1,.7.4,3,3,0,0,1,.2,1,1,1,0,0,1,.4.5h0a2,2,0,0,1,.6.7,1.3,1.3,0,0,1,1.2,1.3.7.7,0,0,1-.3.6,1.7,1.7,0,0,1-1.2.5,5,5,0,0,1,.2,1.2.7.7,0,0,1-.3.6.6.6,0,0,1-.6.1h-.1a65.4,65.4,0,0,0,3.3,14.5c.8,2.5,1.7,5.4,3.6,7.1a6.7,6.7,0,0,0,1.4.9.7.7,0,0,1,.3.9A.5.5,0,0,1,26.3,43.4Z" fill="#ffe62d"/>
        </symbol>
        <symbol viewBox="0 0 121.4 29.5" id="svg-icon-14">
            <path fill="#f29224" d="M57.1,10.3c-3.5,1.6-6.9,5.9-6.3,10.6s6.4,7.7,7.2,7.9a8.9,8.9,0,0,0,8.2-.6A11.2,11.2,0,0,0,70.5,16c-1.9-5.8-8.7-7.8-13.4-5.7"/>
            <path fill="#80c18e" d="M58.9.4a5.6,5.6,0,0,0-3.2,5.4c.4,2.8,3.3,3.8,3.7,4a5,5,0,0,0,4.2-.4,5.7,5.7,0,0,0,2.2-6.1c-1-3-4.4-3.9-6.9-2.9"/>
            <path fill="#e6334c" d="M110.4,22.3a5.5,5.5,0,0,0-5.4-3.2,5.4,5.4,0,0,0-4.1,3.7,4.6,4.6,0,0,0,.4,4.2,5.6,5.6,0,0,0,6.2,2.2,5.1,5.1,0,0,0,2.9-6.9"/>
            <path fill="#ffe72d" d="M109,14.5a3,3,0,0,0-3.2-.9,2.8,2.8,0,0,0-1.5,2.5,3.1,3.1,0,0,0,.9,2.3,2.7,2.7,0,0,0,3.4.2,3,3,0,0,0,.4-4.1"/>
            <path fill="#88579e" d="M90.2,14.6a3.2,3.2,0,0,0-.7,3.5,3,3,0,0,0,2.7,1.4,2.7,2.7,0,0,0,2.1-.9,3.2,3.2,0,0,0,0-3.7,2.8,2.8,0,0,0-4.1-.3"/>
            <path fill="#f29224" d="M95.8,21.1a5.3,5.3,0,0,0-5.9-1.3c-2.3,1.2-2.4,4.2-2.4,4.6A4.5,4.5,0,0,0,89.1,28a5.2,5.2,0,0,0,6.2.1,4.9,4.9,0,0,0,.5-7"/>
            <path fill="#04baee" d="M84.1,21.1c-.9-2.1-3.4-4.2-6.1-3.8s-4.4,3.9-4.5,4.3a6.1,6.1,0,0,0,.3,5.1,6.3,6.3,0,0,0,7,2.5c3.4-1.1,4.5-5.2,3.3-8.1"/>
            <path fill="#e6334c" d="M77.6,11.8a3.4,3.4,0,0,0-2,3.4,3.4,3.4,0,0,0,2.3,2.5,3.3,3.3,0,0,0,2.7-.2,3.6,3.6,0,0,0,1.3-3.9,3.2,3.2,0,0,0-4.3-1.8"/>
            <path fill="#80c18e" d="M113.1,22.3a4.6,4.6,0,0,1,4.6-2.9c2.3.3,3.3,2.9,3.4,3.3a4.5,4.5,0,0,1-.3,3.7,4.7,4.7,0,0,1-5.3,2c-2.5-.9-3.3-4-2.4-6.1"/>
            <path fill="#e6334c" d="M118,15.2a2.8,2.8,0,0,1,1.5,2.6c-.2,1.3-1.6,1.8-1.8,1.9a2.5,2.5,0,0,1-2-.2,2.7,2.7,0,0,1-1-2.9,2.5,2.5,0,0,1,3.3-1.4"/>
            <path fill="#e6334c" d="M11,22.3a5.5,5.5,0,0,1,5.4-3.2c2.8.4,3.9,3.3,4.1,3.7a5,5,0,0,1-.4,4.2,5.6,5.6,0,0,1-6.2,2.2A5.1,5.1,0,0,1,11,22.3"/>
            <path fill="#ffe72d" d="M12.4,14.5a2.9,2.9,0,0,1,3.2-.9A2.7,2.7,0,0,1,17,16.1a2.5,2.5,0,0,1-.8,2.3,2.7,2.7,0,0,1-3.4.2,3,3,0,0,1-.4-4.1"/>
            <path fill="#04baee" d="M37.3,21.1c.9-2.1,3.4-4.2,6.1-3.8s4.4,3.9,4.5,4.3a5.9,5.9,0,0,1-.4,5.1,6.3,6.3,0,0,1-7,2.5c-3.3-1.1-4.4-5.2-3.2-8.1"/>
            <path fill="#88579e" d="M31.2,14.6a3.2,3.2,0,0,1,.7,3.5,3,3,0,0,1-2.7,1.4,2.7,2.7,0,0,1-2.1-.9,3,3,0,0,1,0-3.7,2.8,2.8,0,0,1,4.1-.3"/>
            <path fill="#f29224" d="M25.6,21.1a5.2,5.2,0,0,1,5.8-1.3c2.4,1.2,2.5,4.2,2.5,4.6A4.5,4.5,0,0,1,32.3,28a5.3,5.3,0,0,1-6.2.1,4.8,4.8,0,0,1-.5-7"/>
            <path fill="#e6334c" d="M43.8,11.8a3.4,3.4,0,0,1,2,3.4c-.2,1.7-2.1,2.4-2.3,2.5a3.3,3.3,0,0,1-2.7-.2,3.8,3.8,0,0,1-1.4-3.9,3.2,3.2,0,0,1,4.4-1.8"/>
            <path fill="#80c18e" d="M8.3,22.3a4.6,4.6,0,0,0-4.6-2.9C1.3,19.7.4,22.3.3,22.7a4.5,4.5,0,0,0,.3,3.7,4.7,4.7,0,0,0,5.3,2c2.5-.9,3.3-4,2.4-6.1"/>
            <path fill="#e6334c" d="M3.4,15.2a2.6,2.6,0,0,0-1.5,2.6,2.7,2.7,0,0,0,1.7,1.9,2.5,2.5,0,0,0,2-.2,2.7,2.7,0,0,0,1.1-2.9,2.5,2.5,0,0,0-3.3-1.4"/>
        </symbol>
        <symbol viewBox="0 0 102.4 84" id="svg-icon-15">
            <path fill="#ffffff" d="M87.6,22.1c18.6,21.2,1.7,51-22,60.2-2.9,1.1-6.7,1.2-9.8,1.7-6.3-.1-11.8-2.3-17.3-5C26.4,71.8,19.4,60.5,14.6,47.7c-1.3-3.5-1.3-7.3-1.4-11a30.9,30.9,0,0,1,1.1-8.3c1.2-4,3.2-6.8,5.1-10.3s7-6.8,11-9.4c9.2-5.4,19.7-6.6,30.1-5.3,3.2,0,5.3,1.5,8.1,2.9A44.2,44.2,0,0,1,86,20.1Z"/>
            <path fill="#a1c646" d="M35,35.4c5.8-6.3,17.2-10.4,26.7-5.7C72.7,35.3,73,48.8,73,50.6s.1,11.1-7.4,16.9-20.2,6.6-28.6.2C26.3,59.6,27.1,43.9,35,35.4Z"/>
            <path fill="#0eb8ec" d="M64.2,10.1c1.9,5.3.7,13.3-5.1,17.4s-14.7.8-15.7.2-6.6-3.4-7.6-9.6A16.4,16.4,0,0,1,44.7,1.2C52.8-2.5,61.8,2.8,64.2,10.1Z"/>
            <path fill="#ffffff" d="M42.9,11.6a2.3,2.3,0,0,1,2.6-.5,2.3,2.3,0,0,1,1.2,2,2.1,2.1,0,0,1-.8,1.7,2.4,2.4,0,0,1-2.8,0A2.2,2.2,0,0,1,42.9,11.6Z"/>
            <path fill="#1d1e1c" d="M43.9,12.5a.9.9,0,0,1,1-.2.9.9,0,0,1,.4.8.7.7,0,0,1-.3.6.9.9,0,0,1-1,0A.8.8,0,0,1,43.9,12.5Z"/>
            <path fill="#ffffff" d="M56.3,11.6a2.3,2.3,0,0,1,2.6-.5,2.2,2.2,0,0,1,1.1,2,1.9,1.9,0,0,1-.7,1.7,2.4,2.4,0,0,1-2.8,0A2.2,2.2,0,0,1,56.3,11.6Z"/>
            <path fill="#1d1e1c" d="M57.3,12.5a.8.8,0,0,1,1.4.6.7.7,0,0,1-.3.6.9.9,0,0,1-1,0A.8.8,0,0,1,57.3,12.5Z"/>
            <path fill="#ffffff" d="M52.6,24.5H51.2c-2.6-.4-4.4-1.3-5.5-2.7a.7.7,0,0,1,.1-.9.6.6,0,0,1,.8.1,7.3,7.3,0,0,0,4.8,2.3,4.8,4.8,0,0,0,2.4-.1A2,2,0,0,0,55,21.6a.8.8,0,0,1,.5-.7.9.9,0,0,1,.7.6,3,3,0,0,1-1.9,2.7A5.1,5.1,0,0,1,52.6,24.5Z"/>
            <path fill="#a1c646" d="M32.3,45.9a.5.5,0,0,1-.5-.5c-.1-.3-.6-.5-1-.6-10.1-3.1-17.6-11-24.3-17.9a.8.8,0,0,1-.2-.5l.2-.4.5-.4a.5.5,0,0,1,.8.1.5.5,0,0,1,0,.8h0c6.4,6.7,13.8,14.2,23.3,17.2.5.1,1.6.5,1.8,1.4s-.1.7-.4.7Z"/>
            <path fill="#a1c646" d="M9.6,25.3H9.5a.6.6,0,0,1-.5-.6,7.1,7.1,0,0,1,2.8-5,.8.8,0,0,1,.9.2.7.7,0,0,1-.2.8,5.6,5.6,0,0,0-2.3,4.1A.6.6,0,0,1,9.6,25.3Z"/>
            <path fill="#a1c646" d="M8.2,30.4H7.8a.4.4,0,0,1-.5,0L6.9,30A11.9,11.9,0,0,1,.6,26.8a.6.6,0,0,1-.1-.7.2.2,0,0,1,.2-.2l-.5-.4a.5.5,0,0,1-.1-.7.4.4,0,0,1,.6-.3l1.2.3-.5-.7a.6.6,0,0,1,0-.6.5.5,0,0,1,.5-.3,5.8,5.8,0,0,1,1.9.3c-.1-.2-.2-.3-.2-.5s-.1-.5.1-.6a.6.6,0,0,1,.5-.2.6.6,0,0,0-.1-.4.9.9,0,0,1,.3-.7.8.8,0,0,1,.7.1l.3.3h0a.5.5,0,0,1,.2-.6.9.9,0,0,1,.7,0,8.2,8.2,0,0,1,3.3,5.5.4.4,0,0,1-.2.5V27a.6.6,0,0,1-.2.8.6.6,0,0,1-.8-.1,1,1,0,0,0-.4-.5h0a.8.8,0,0,1-.8.1,8.4,8.4,0,0,1-2.4-2.2,5.8,5.8,0,0,0-1.7-.6l1.1,1.1a18.7,18.7,0,0,1,4.1,2.5.6.6,0,0,1,.2.8H8.4c.1,0,.2,0,.2.1a.5.5,0,0,1,.2.8l-.4.2Zm-.5-6.2c0,.1.1.1.1.2l-.3-.6A.8.8,0,0,0,7.7,24.2Z"/>
            <path fill="#a1c646" d="M70.1,45.9h-.2c-.3,0-.5-.3-.4-.7s1.3-1.3,1.8-1.4c9.5-3,16.8-10.5,23.3-17.2h0a.6.6,0,0,1-.1-.8.6.6,0,0,1,.9-.1l.5.4a.6.6,0,0,1,.1.4.4.4,0,0,1-.1.5c-6.7,6.9-14.3,14.8-24.3,17.9-.4.1-.9.3-1,.6A.5.5,0,0,1,70.1,45.9Z"/>
            <path fill="#a1c646" d="M92.8,25.3a.6.6,0,0,1-.6-.5,5.6,5.6,0,0,0-2.3-4.1.6.6,0,0,1-.2-.8.8.8,0,0,1,.9-.2,7.1,7.1,0,0,1,2.8,5,.6.6,0,0,1-.6.6Z"/>
            <path fill="#a1c646" d="M94.2,30.4H94l-.4-.2a.5.5,0,0,1,.2-.8.1.1,0,0,1,.1-.1h-.1a.6.6,0,0,1,.2-.8,18.7,18.7,0,0,1,4.1-2.5l1.1-1.1a4.9,4.9,0,0,0-1.7.6,10,10,0,0,1-2.4,2.2.8.8,0,0,1-.8-.1h0a1,1,0,0,0-.4.5.6.6,0,0,1-.8.1.5.5,0,0,1-.2-.8v-.2a.4.4,0,0,1-.2-.5,8.2,8.2,0,0,1,3.3-5.5.9.9,0,0,1,.7,0,.5.5,0,0,1,.2.6h0l.3-.3a.8.8,0,0,1,.7-.1.9.9,0,0,1,.3.7c-.1.1-.1.3-.2.4a.7.7,0,0,1,.6.2.6.6,0,0,1,.1.6l-.2.5a5.7,5.7,0,0,1,1.8-.3.6.6,0,0,1,.6.3.6.6,0,0,1,0,.6l-.5.7,1.2-.3a.4.4,0,0,1,.6.3.5.5,0,0,1-.1.7l-.5.4.2.2a.6.6,0,0,1-.1.7A11.9,11.9,0,0,1,95.5,30l-.4.2a.4.4,0,0,1-.5,0h-.4Zm.7-6.6-.3.6c0-.1.1-.1.1-.2S94.8,23.9,94.9,23.8Z"/>
        </symbol>
        <symbol viewBox="0 0 199.36 200.12" id="svg-icon-16">
            <path d="M63,8.17C28.36,23.78-5.5,66.61.75,114.18,8,169.35,63.91,190.64,71.4,193.35c8.73,3.16,46.23,16.72,81.43-6.71C188.33,163,209.15,110,194.74,64.53,176.43,6.71,109.51-12.77,63,8.17Z"/>
        </symbol>
        <symbol viewBox="0 0 113.4 44.8" id="svg-icon-2">
            <path fill="#e6334c" d="M16,15c-4.4,2-8.7,7.5-7.9,13.6s8.1,9.8,9,10.2,6,2.1,10.5-.9a14.4,14.4,0,0,0,5.3-15.7C30.6,14.8,22,12.3,16,15Z"/>
            <path fill="#f19124" d="M17.9.6C15.2,1.8,12.6,5.1,13,8.7s5,5.8,5.5,6a7.8,7.8,0,0,0,6.4-.5,8.4,8.4,0,0,0,3.2-9.3C26.7.5,21.5-1,17.9.6Z"/>
            <path fill="#ffffff" d="M16.5,6.6a1.6,1.6,0,0,1,1.7-.5A1.5,1.5,0,0,1,19,7.3a1.2,1.2,0,0,1-.4,1.1,1.4,1.4,0,0,1-1.8.2A1.4,1.4,0,0,1,16.5,6.6Z"/>
            <path fill="#1d1d1b" d="M17.2,7.1c.1-.1.4-.3.6-.2s.3.5.3.5.1.3-.1.4a.6.6,0,0,1-.7.1A.8.8,0,0,1,17.2,7.1Z"/>
            <path fill="#ffffff" d="M23,6a1.3,1.3,0,0,1,1.6-.5c.7.2.8,1.1.9,1.2a1.6,1.6,0,0,1-.4,1.1,1.7,1.7,0,0,1-1.8.2A1.4,1.4,0,0,1,23,6Z"/>
            <path fill="#1d1d1b" d="M23.7,6.5a.5.5,0,0,1,.6-.2.4.4,0,0,1,.3.4,1.1,1.1,0,0,1-.1.5c-.2.1-.5.2-.7,0A.4.4,0,0,1,23.7,6.5Z"/>
            <path style="fill:none;stroke:#fff;stroke-width:0.5px;stroke-linecap:round;stroke-linejoin:round;" d="M18.4,11.6a8.6,8.6,0,0,0,2.4,1.1,3.4,3.4,0,0,0,1,0c.8-.2,1.3-1,1.7-1.7"/>
            <path fill="#87589e" d="M92.7,18.2c-4.6,2.1-9.2,7.7-8.3,14s8.4,10.2,9.5,10.5,6.2,2.2,10.9-.9a14.5,14.5,0,0,0,5.6-16.1C108,18,99,15.4,92.7,18.2Z"/>
            <path fill="#fdc300" d="M105.4,6c-1.8-2.4-5.6-4.1-8.8-2.7s-3.9,6.4-3.9,7.1A7.4,7.4,0,0,0,95,16.5a7.8,7.8,0,0,0,9.4.7C108.1,14.6,107.9,9.1,105.4,6Z"/>
            <path fill="#ffffff" d="M96,8.4a1.3,1.3,0,0,1,1.7-.2,1.8,1.8,0,0,1,.6,1.4,1.4,1.4,0,0,1-.6,1,1.5,1.5,0,0,1-1.8-.2A1.3,1.3,0,0,1,96,8.4Z"/>
            <path fill="#1d1d1b" d="M96.6,9a.5.5,0,0,1,.6,0c.2.1.2.4.2.5a.4.4,0,0,1-.2.3.5.5,0,0,1-.7,0A.6.6,0,0,1,96.6,9Z"/>
            <path fill="#ffffff" d="M102.4,9a1.4,1.4,0,0,1,1.7-.2,1.3,1.3,0,0,1,.6,1.3,1.3,1.3,0,0,1-.5,1.1,1.5,1.5,0,0,1-1.8-.2A1.4,1.4,0,0,1,102.4,9Z"/>
            <path fill="#1d1d1b" d="M103,9.6a.9.9,0,0,1,.7-.1.8.8,0,0,1,.2.5.4.4,0,0,1-.2.4H103A.6.6,0,0,1,103,9.6Z"/>
            <path style="fill:none;stroke:#fff;stroke-width:0.5px;stroke-linecap:round;stroke-linejoin:round;" d="M96.9,13.4l1.4.8a6.1,6.1,0,0,0,1.3.3h1.2a3.3,3.3,0,0,0,1.9-.8"/>
            <path style="fill:none;stroke:#e6334c;" d="M31,20.3a74.7,74.7,0,0,0,5.1,7.4A21.1,21.1,0,0,0,43,33.4"/>
            <path style="fill:none;stroke:#e6334c;" d="M2.4,5.4a47.2,47.2,0,0,0,9.5,18.8.7.7,0,0,0,.6.4c.2,0,.5-.3.4-.5"/>
            <path style="fill:none;stroke:#e6334c;" d="M.6,3.6V3.3A9.1,9.1,0,0,1,1.8,5.9,36.9,36.9,0,0,0,.7,1.4,34.7,34.7,0,0,1,2.3,5.5,7.1,7.1,0,0,0,2.1,3a8.5,8.5,0,0,0,.3,2.3,7.8,7.8,0,0,0,.3-2.2A5.2,5.2,0,0,0,3,5.6a5.5,5.5,0,0,0,.2-2.2v.9"/>
            <path fill="#0eb8ec" d="M69.4,29.9c-1.5-3.6-5.7-7.2-10.4-6.6s-7.5,6.7-7.8,7.5-1.7,4.9.7,8.6a10.4,10.4,0,0,0,12,4.4C69.6,41.9,71.5,34.8,69.4,29.9Z"/>
            <path fill="#45b29d" d="M58.3,13.8a6.1,6.1,0,0,0-3.5,5.8c.4,3,3.6,4.2,4,4.4a5.5,5.5,0,0,0,4.6-.4,6.1,6.1,0,0,0,2.4-6.7C64.7,13.8,61,12.7,58.3,13.8Z"/>
            <path fill="#ffffff" d="M57.4,17.7a1.1,1.1,0,0,1,1.1-.3.9.9,0,0,1,.5.9,1.1,1.1,0,0,1-.3.7.9.9,0,0,1-1.1,0A.9.9,0,0,1,57.4,17.7Z"/>
            <path fill="#1d1d1b" d="M57.9,18.1c.1-.1.2-.2.4-.1s.1.2.2.3v.2a.5.5,0,0,1-.5,0A.3.3,0,0,1,57.9,18.1Z"/>
            <path fill="#ffffff" d="M61.6,17.5a1.3,1.3,0,0,1,1.1-.3,1.4,1.4,0,0,1,.5.9.9.9,0,0,1-.3.7,1.1,1.1,0,0,1-1.2,0A.9.9,0,0,1,61.6,17.5Z"/>
            <path fill="#1d1d1b" d="M62,17.9c.1-.1.3-.2.4-.1s.2.2.2.3v.2h-.4C61.9,18.2,61.9,18,62,17.9Z"/>
            <path style="fill:none;stroke:#fff;stroke-width:0.5px;stroke-linecap:round;stroke-linejoin:round;" d="M58.9,21.4c1,.6,2.3.2,3.3-.2"/>
            <path style="fill:none;stroke-linecap:round;stroke-linejoin:round;stroke:#0eb8ec;" d="M44.2,32.9c.1-.2-.3-.3-.5-.2l-1,.3H44l-1.4.6a1.4,1.4,0,0,0,1.5,0,2.6,2.6,0,0,0-1.1.7,1.4,1.4,0,0,0,1.1.1c-.2,0-.4-.1-.6,0a.4.4,0,0,0-.4.4l.8-.2c.2-.3.4-.6.2-.9a.5.5,0,0,0-.8-.2.5.5,0,0,1,.6-.5H43a1.3,1.3,0,0,0,.5-.7l-.3.6a2.8,2.8,0,0,0,1.1-.8l-1.1,2.1a1,1,0,0,0,.9-.7l-.5.5c.1.2.3.2.5.1"/>
            <path style="fill:none;stroke:#e6334c;" d="M41.7,33.7a.5.5,0,0,0-.1-.8l1,.5-.7-1a2.8,2.8,0,0,0,1.5.8,2.4,2.4,0,0,1-.6-1.1,3.2,3.2,0,0,1,.9.3l-.9-.4a1.3,1.3,0,0,0,.3,1c-.1.1-.2,0-.3-.1s-.2-.2-.4-.2a.3.3,0,0,0-.2.5.5.5,0,0,0,.6.4l-1.3-.2a16.2,16.2,0,0,0,1,1.8,1.1,1.1,0,0,0-.9-.9c.2.2.6-.1.6-.5a1,1,0,0,0-.5-.8.9.9,0,0,0,.6-.4.3.3,0,0,0-.1-.6,1.1,1.1,0,0,0,.7.8v-.6a.5.5,0,0,0,.5.5c0,.3.1.6.1,1a.7.7,0,0,0-.9-.1l.4.6-.7-.3c.1.3.6.2.7-.1a2.4,2.4,0,0,0-.2-.8l.6.2a.4.4,0,0,0-.4-.4.5.5,0,0,0,.2.4V33"/>
            <path style="fill:none;stroke:#0eb8ec;stroke-miterlimit:10;" d="M44.1,33.7a12,12,0,0,0,9.1-4.5"/>
            <path style="fill:none;stroke:#0eb8ec;stroke-miterlimit:10;" d="M76,33.3c-2.1-.2-3.8-1.5-5.5-2.8l-2.4-1.9a1.8,1.8,0,0,1-.9-1.4"/>
            <path style="fill:none;stroke-linecap:round;stroke-linejoin:round;stroke:#0eb8ec;" d="M75.8,33.7h0a.1.1,0,0,1,.1-.1l1.4.5a1.9,1.9,0,0,1-1.8-.6h1.8a3.4,3.4,0,0,1-1,0,1.1,1.1,0,0,1-.7-.6A1.2,1.2,0,0,0,77,33a3.1,3.1,0,0,0-1.3-.3h1.6a1.8,1.8,0,0,1-1.6-.2,2.3,2.3,0,0,0,1.4-.1l-1.4.2h1.6a1.3,1.3,0,0,0-1.2-.1l1.1.2a2.6,2.6,0,0,1-1.3-.8,1,1,0,0,1,.9.1l-.9.2a1.9,1.9,0,0,0,1.2.7H75.8a1.2,1.2,0,0,1,1.1.7,2.9,2.9,0,0,0-1.3.1,2.1,2.1,0,0,0,1.1.1h-.8c0,.1.1.3.2.3"/>
            <path style="fill:none;stroke-linecap:round;stroke-linejoin:round;stroke:#87589e;" d="M78.2,33.2a2.9,2.9,0,0,1,1.2-.7,14,14,0,0,0,5.1-4.3c1.3-1.8,4.2-4.7,5.2-6.7"/>
            <path style="fill:none;stroke-linecap:round;stroke-linejoin:round;stroke:#87589e;" d="M77.5,32.2H78a1.8,1.8,0,0,0-1.9.7,2.8,2.8,0,0,0,2-.8l-1.2,1.2a1.7,1.7,0,0,0,1.4-.3l-1.1,1.2a1.7,1.7,0,0,0,1.2-.2,1.5,1.5,0,0,1-.7.3c-.2,0-.5-.3-.4-.5l.4-.2a1.9,1.9,0,0,0,1-1.3,4.3,4.3,0,0,0-1.9.4,1.4,1.4,0,0,0,.8-1,1.9,1.9,0,0,0-1,.3.5.5,0,0,1,.2-.7l-.6.2,1.4-.5-1,1.5h1.3a2,2,0,0,1-1.2,1.2,2.6,2.6,0,0,0,1.7.5l-.8.4c-.3.1-.6.5-.3.7a2.9,2.9,0,0,0,1.4-1.5,1.6,1.6,0,0,1-1-.1A4.9,4.9,0,0,0,79,32.5l-1.1.2c.1-.1.3-.2.4-.4s.1-.4-.1-.5h-.3c-.2-.1-.1-.5.1-.5a.8.8,0,0,0-.8.2h.3c.1,0,.2-.1.3,0s0,.3-.1.2"/>
            <path style="fill:none;stroke-linecap:round;stroke-linejoin:round;stroke:#87589e;" d="M111.2,40.1a7.8,7.8,0,0,0-.4,2.2,5,5,0,0,1,.8-2,10.9,10.9,0,0,0,.1,1.8,2.9,2.9,0,0,0,.7-1.8l-.2,1.5.6-1.2v.2a12.8,12.8,0,0,1-.7,2.8v-2a1.6,1.6,0,0,1-1.1,1l.5-1.5a.9.9,0,0,0-.6.7,2.2,2.2,0,0,0,.7-.9v1.3c-.1-.2.2-.5.4-.3a4,4,0,0,1-1.6,2.4,3.8,3.8,0,0,0,1.8-2.9,3.4,3.4,0,0,1-1.1,1.7,3.9,3.9,0,0,1,.7-2.3c-.1,0-.2.1-.2.3a2.2,2.2,0,0,0,.1-.8l-.7,1.2a.9.9,0,0,0,.3-.6c.1-.2.2-.5.4-.6s.6.5.6.7v.2a27.6,27.6,0,0,0-.1-11.8,15.9,15.9,0,0,0-1.5-4.5,7.3,7.3,0,0,0-3.5-3.2"/>
        </symbol>
        <symbol viewBox="0 0 104.9 74" id="svg-icon-3">
            <path fill="#a2d23f" d="M35.8,36.3c6-6.5,17.7-10.7,27.4-5.9C74.5,36.1,74.8,50,74.8,51.8s.1,11.4-7.6,17.4-20.7,6.7-29.3.1C26.9,61.1,27.8,44.9,35.8,36.3Z"/>
            <path fill="#04baee" d="M65.8,10.3c1.9,5.5.7,13.7-5.2,17.9s-15.1.7-16.2.2-6.7-3.5-7.7-9.9A16.7,16.7,0,0,1,45.8,1.3C54.1-2.6,63.3,2.9,65.8,10.3Z"/>
            <path fill="#ffffff" d="M43.9,11.9a2.5,2.5,0,0,1,2.7-.6,2.4,2.4,0,0,1,1.2,2.1,2,2,0,0,1-.8,1.7,2.5,2.5,0,0,1-2.9.1A2.4,2.4,0,0,1,43.9,11.9Z"/>
            <path fill="#1d1d1b" d="M45,12.8a.8.8,0,0,1,1.4.6.7.7,0,0,1-.3.6.7.7,0,0,1-1,0A.8.8,0,0,1,45,12.8Z"/>
            <path fill="#ffffff" d="M57.7,11.9a2.4,2.4,0,0,1,2.7-.6,2.5,2.5,0,0,1,1.1,2.1,2.1,2.1,0,0,1-.7,1.7,2.6,2.6,0,0,1-2.9.1A2.3,2.3,0,0,1,57.7,11.9Z"/>
            <path fill="#1d1d1b" d="M58.7,12.8a.8.8,0,0,1,1.4.6.8.8,0,0,1-.2.6.8.8,0,0,1-1.1,0A.8.8,0,0,1,58.7,12.8Z"/>
            <path fill="#ffffff" d="M53.9,25.1l-1.4-.2c-2.7-.3-4.5-1.2-5.7-2.7a.8.8,0,0,1,.1-.9.7.7,0,0,1,.9.2,8,8,0,0,0,4.9,2.3,5.3,5.3,0,0,0,2.5-.2,1.5,1.5,0,0,0,1.1-1.5.6.6,0,0,1,.6-.6.5.5,0,0,1,.6.5,2.9,2.9,0,0,1-1.9,2.8Z"/>
            <path fill="#a2d23f" d="M33.1,47a.6.6,0,0,1-.6-.5c0-.3-.6-.5-1-.6-10.2-3.2-18-11.3-24.8-18.4a.4.4,0,0,1-.2-.4.5.5,0,0,1,.2-.4l.5-.5a.5.5,0,0,1,.8.1.5.5,0,0,1,0,.8H8C14.6,34,22.1,41.7,31.9,44.7c.5.2,1.6.5,1.8,1.5a.6.6,0,0,1-.5.8Z"/>
            <path fill="#a2d23f" d="M9.8,26h0a.7.7,0,0,1-.6-.7,7.4,7.4,0,0,1,2.9-5.1.7.7,0,0,1,.9.2.6.6,0,0,1-.2.8,6.2,6.2,0,0,0-2.4,4.2A.6.6,0,0,1,9.8,26Z"/>
            <path fill="#a2d23f" d="M8.4,31.1h-1l-.3-.2A11.9,11.9,0,0,1,.6,27.4c-.2-.1-.2-.4-.1-.6l.2-.3-.5-.4a.5.5,0,0,1-.1-.7.4.4,0,0,1,.6-.3l1.3.3-.5-.7a.6.6,0,0,1-.1-.7.9.9,0,0,1,.6-.3l1.9.4-.2-.5a.6.6,0,0,1,.1-.7c.2-.1.4-.2.5-.1a.9.9,0,0,0-.1-.5.6.6,0,0,1,.3-.6.5.5,0,0,1,.7.1l.3.2h0a.5.5,0,0,1,.2-.6.8.8,0,0,1,.7,0,8.6,8.6,0,0,1,3.5,5.6.6.6,0,0,1-.3.6v.2a.5.5,0,0,1-.2.8.6.6,0,0,1-.8-.1,2.1,2.1,0,0,0-.4-.6H8.2a.5.5,0,0,1-.7.1A7.5,7.5,0,0,1,5,25.8l-1.7-.7a6.3,6.3,0,0,0,1.1,1.2,22.6,22.6,0,0,1,4.2,2.6.6.6,0,0,1,.2.8c-.1,0-.1.1-.2.2h.1a.1.1,0,0,1,.1.1.5.5,0,0,1,.2.8l-.4.3Zm-.5-6.3c0,.1.1.1.1.2a2.5,2.5,0,0,0-.4-.7Z"/>
            <path fill="#a2d23f" d="M71.8,47h-.2a.6.6,0,0,1-.4-.8c.2-1,1.3-1.3,1.8-1.5,9.8-3,17.3-10.7,23.9-17.6h0a.5.5,0,0,1-.1-.8.6.6,0,0,1,.9-.1l.5.5a.5.5,0,0,1,.2.4l-.2.4c-6.8,7.1-14.6,15.2-24.8,18.4-.5.1-1,.3-1,.6A.7.7,0,0,1,71.8,47Z"/>
            <path fill="#a2d23f" d="M95,26c-.3,0-.5-.3-.6-.6A5.6,5.6,0,0,0,92,21.2a.6.6,0,0,1-.1-.8.6.6,0,0,1,.8-.2,6.8,6.8,0,0,1,2.9,5.1c.1.3-.2.6-.5.7Z"/>
            <path fill="#a2d23f" d="M96.5,31.1h-.3l-.3-.3a.5.5,0,0,1,.2-.8.1.1,0,0,1,.1-.1h0v-.2a.6.6,0,0,1,.1-.8,23.4,23.4,0,0,1,4.3-2.6l1.1-1.2-1.7.7A8.6,8.6,0,0,1,97.4,28a.6.6,0,0,1-.8-.1h-.1l-.4.6a.6.6,0,0,1-.8.1.8.8,0,0,1-.2-.8l.2-.2a.6.6,0,0,1-.3-.6,8.5,8.5,0,0,1,3.4-5.6.9.9,0,0,1,.7,0,.7.7,0,0,1,.3.6.1.1,0,0,1-.1.1l.3-.2a.5.5,0,0,1,.7-.1.4.4,0,0,1,.3.6.9.9,0,0,1-.1.5.4.4,0,0,1,.5.1.6.6,0,0,1,.2.7c-.1.1-.1.3-.2.5l1.9-.4a.5.5,0,0,1,.5.3.9.9,0,0,1,0,.7l-.5.7,1.2-.3a.5.5,0,0,1,.7.3c.1.3.1.6-.2.7a1,1,0,0,1-.5.4l.3.3a.5.5,0,0,1-.2.6,11.3,11.3,0,0,1-6.4,3.3l-.4.2h-.9Zm.7-6.8-.3.7c0-.1.1-.1.1-.2S97.2,24.5,97.2,24.3Z"/>
        </symbol>
        <symbol viewBox="0 0 50.4 39.9" id="svg-icon-4">
            <path fill="#fcc200" d="M14.9,19.6c3.2-3.5,9.5-5.8,14.8-3.2S35.9,27,35.9,28s.1,6.1-4.1,9.3a13.5,13.5,0,0,1-15.8.1C10.1,32.9,10.6,24.2,14.9,19.6Z"/>
            <path fill="#22a8b5" d="M31.1,5.6c1,2.9.3,7.4-2.9,9.6s-8.1.4-8.7.1A7.5,7.5,0,0,1,15.3,10a8.9,8.9,0,0,1,5-9.3C24.8-1.4,29.7,1.6,31.1,5.6Z"/>
            <path fill="#ffffff" d="M19.3,6.4a1.4,1.4,0,0,1,1.4-.3,1.3,1.3,0,0,1,.6,1.1,1.2,1.2,0,0,1-.4,1,1.4,1.4,0,0,1-1.5,0A1.2,1.2,0,0,1,19.3,6.4Z"/>
            <path fill="#1d1d1b" d="M19.8,6.9a.6.6,0,0,1,.6-.1c.2.1.2.4.2.4a.4.4,0,0,1-.2.4.5.5,0,0,1-.5,0C19.6,7.4,19.7,7.1,19.8,6.9Z"/>
            <path fill="#ffffff" d="M26.7,6.4a1.4,1.4,0,0,1,1.4-.3,1.3,1.3,0,0,1,.6,1.1,1.2,1.2,0,0,1-.4,1,1.4,1.4,0,0,1-1.5,0A1.2,1.2,0,0,1,26.7,6.4Z"/>
            <path fill="#1d1d1b" d="M27.2,6.9a.6.6,0,0,1,.6-.1c.2.1.2.4.2.4a.4.4,0,0,1-.2.4.5.5,0,0,1-.5,0A.6.6,0,0,1,27.2,6.9Z"/>
            <path fill="none" stroke-linecap="round" stroke-linejoin="round" stroke="#fcc200" d="M31.8,20.7a120.9,120.9,0,0,1,18.1-2.2L44.7,9.8a1.1,1.1,0,0,0,.6-1,1.6,1.6,0,0,0-1.8.7A5,5,0,0,0,44.9,11a2.1,2.1,0,0,0-.5-1.3c-.5-.1-1.1.6-.8,1.1s1.1.5,1.4.1a1,1,0,0,0-.4-1.4l-.7.5.7.8A1.9,1.9,0,0,0,45.2,9a1.2,1.2,0,0,0-1,.1,2.1,2.1,0,0,1,0-1.9,4.1,4.1,0,0,0-.1,1.9c-.4-.1-.3-1,.2-1"/>
            <path fill="none" stroke-linecap="round" stroke-linejoin="round" stroke="#fcc200" d="M14.8,22.2l-4.9.5c-3.1.3-6.5.6-9.4-.6l6.2-10c.2-.3.4-.6.7-.6s.3.6,0,.6-2.8.3-2.8-.6a1.5,1.5,0,0,1,2.4,0,1,1,0,0,1-1.7.2,1,1,0,0,1,.9-1.4,1.1,1.1,0,0,1,.4,1.3.7.7,0,0,1-.7-.8l.8.4"/>
            <path fill="none" stroke-linecap="round" stroke-linejoin="round" stroke="#ffffff" stroke-width="0.75" d="M21.1,11.8a4.1,4.1,0,0,0,2.8,1.3h1.5a1.4,1.4,0,0,0,.9-1.2"/>
        </symbol>
        <symbol viewBox="0 0 63.5 73.5" id="svg-icon-5">
            <path d="M10.3,55.5l-.4-.2A60.9,60.9,0,0,1,.1,44.2a.9.9,0,0,1,0-.7A68.6,68.6,0,0,1,8.7,33.4a.8.8,0,0,1,.9,0,.7.7,0,0,1,0,1,66.7,66.7,0,0,0-8.1,9.5,57.3,57.3,0,0,0,9.3,10.4c.2.2.3.7,0,.9A.5.5,0,0,1,10.3,55.5Z" fill="#ffe62d"/>
            <path d="M51.8,56.9c-.2,0-.3,0-.4-.2a.6.6,0,0,1-.1-.9A120.5,120.5,0,0,0,62,41.8a49.5,49.5,0,0,0-8.7-9,.8.8,0,0,1-.1-1,.6.6,0,0,1,.9-.1,52.2,52.2,0,0,1,9.2,9.6.8.8,0,0,1,.1.8A119.5,119.5,0,0,1,52.3,56.7Z" fill="#ffe62d"/>
            <path d="M42.2,3.9c4.1,3.8,6.8,11.3,3.7,17.6S33.4,28.9,32.3,29,25,29,21.2,24.1,17,10.8,21.2,5.3C26.5-1.8,36.7-1.2,42.2,3.9Z" fill="#45b29d"/>
            <path d="M11.5,43.3c3.3-7.8,12.6-15.5,23-14.2C46.5,30.5,51.3,43,52,44.6s3.7,10.3-1.3,18.3S34.2,75.7,24.2,72.6C11.6,68.7,7.1,53.8,11.5,43.3Z" fill="#ffe62d"/>
            <path d="M25.3,10.1a2.6,2.6,0,0,1,3-.6,2.7,2.7,0,0,1,1.3,2.3,2.2,2.2,0,0,1-.9,1.9,2.6,2.6,0,0,1-3.2,0A2.5,2.5,0,0,1,25.3,10.1Z" fill="#fff"/>
            <path d="M26.5,11.1a1,1,0,0,1,1.1-.2c.4.2.4.8.4.9a.7.7,0,0,1-.3.7,1.3,1.3,0,0,1-1.2,0A1,1,0,0,1,26.5,11.1Z" fill="#1d1d1b"/>
            <path d="M36.9,10.1a2.5,2.5,0,0,1,3-.6,2.6,2.6,0,0,1,1.2,2.3,2.3,2.3,0,0,1-.8,1.9,2.6,2.6,0,0,1-3.2,0A2.5,2.5,0,0,1,36.9,10.1Z" fill="#fff"/>
            <path d="M38,11.1a1.1,1.1,0,0,1,1.1-.2,1,1,0,0,1,.2,1.6,1.3,1.3,0,0,1-1.2,0A1.1,1.1,0,0,1,38,11.1Z" fill="#1d1d1b"/>
            <path d="M33.5,23.6c-2.6,0-5.2-1.9-5.3-4a.4.4,0,0,1,.4-.5c.3-.1.5.1.6.4s2.3,3.2,4.6,3A4.5,4.5,0,0,0,37.1,21a2.4,2.4,0,0,0,.7-1.9.5.5,0,0,1,.5-.5.5.5,0,0,1,.5.5,3.5,3.5,0,0,1-.9,2.6,5.6,5.6,0,0,1-4.1,1.8Z" fill="#fff"/>
            <polygon points="7.5 17.3 9 69.4 54.5 69.1 55.2 18.2 7.5 17.3" fill="#efe7be"/>
            <path d="M55.2,36.3l-.4-.2-.4-.4-.6-.7a1.2,1.2,0,0,1-.7-.7v-.2l-.4-.3a.7.7,0,0,1-.1-.9.6.6,0,0,1,.7-.2h.3c-.1-.2,0-.4,0-.5s.1-.2.1-.3a1,1,0,0,1,.5-.4.6.6,0,0,1,.1-.4l.2-.2a3.6,3.6,0,0,1-.7-1,.6.6,0,0,1,0-.8.8.8,0,0,1,.9-.1,10.4,10.4,0,0,1,3.7,3.5.7.7,0,0,1-.2.9.6.6,0,0,1-.1.4l-.3.2a.9.9,0,0,1-.1.5q0,.2-.3.3a.6.6,0,0,1,.1.8.7.7,0,0,1-.8.3l-.5-.2h0c0,.1-.1.1-.1.2l-.5.2Z" fill="#ffe62d"/>
            <path d="M8.2,39H7.8a.9.9,0,0,1-.3-.6h0a.6.6,0,0,1,0-.8l.3-.5a.4.4,0,0,1-.1-.3H7.6a.6.6,0,0,1-.7-.2,1.3,1.3,0,0,1-.1-.6h0a.5.5,0,0,1-.1-.6.1.1,0,0,1-.1-.1A.8.8,0,0,1,6.2,34l.3-.4a.8.8,0,0,1,.2-.5l1.8-1.9a.6.6,0,0,1,.9-.1h.1a.7.7,0,0,1,.6.1.6.6,0,0,1,.2.8l-.6,1.1.9-.3a.8.8,0,0,1,.7.4.6.6,0,0,1-.1.8.1.1,0,0,0,.1.1l.3.2a.6.6,0,0,1,.1.7,4.2,4.2,0,0,1-.9,1.4,10,10,0,0,1-2.2,2.4Zm-.9-5.9Z" fill="#ffe62d"/>
            <path d="M38.2,23.4H38a10.1,10.1,0,0,0-2.5-.3.7.7,0,0,1-.7-.7.7.7,0,0,1,.7-.6,12.7,12.7,0,0,1,2.8.3.6.6,0,0,1,.5.8A.6.6,0,0,1,38.2,23.4Z" fill="#caba9f"/>
            <path d="M27.6,64.3h-.2a6.1,6.1,0,0,1-3.8-4.2.7.7,0,0,1,1.3-.3,4.6,4.6,0,0,0,3,3.2.9.9,0,0,1,.4.9A.7.7,0,0,1,27.6,64.3Zm5.2,0a.8.8,0,0,1-.7-.5.6.6,0,0,1,.5-.8l2.1-.7,2.5-.8h.4a.6.6,0,0,1,.8.5.7.7,0,0,1-.5.8h-.3l-2.4.7-2.3.7ZM26.1,56c-.2,0-.4,0-.5-.2a.6.6,0,0,1,.1-.9,8.3,8.3,0,0,1,2.2-1.4l2.7-1.1a.6.6,0,0,1,.8.5.6.6,0,0,1-.4.8l-2.5,1a6.2,6.2,0,0,0-1.9,1.2Zm9.8-3a.7.7,0,0,1-.6-.7c-.1-.3.2-.6.6-.7h.5a16.3,16.3,0,0,0,4.5-.6.6.6,0,0,1,.8.5.6.6,0,0,1-.4.8,16.5,16.5,0,0,1-4.9.6h-.5Zm9.5-3.5H45a.8.8,0,0,1-.1-1,9.1,9.1,0,0,0,1.8-3.7,1.3,1.3,0,0,1,.1-.6c0-.4.3-.6.7-.6a.7.7,0,0,1,.6.7c0,.2-.1.5-.1.7a9.5,9.5,0,0,1-2.1,4.4C45.8,49.5,45.6,49.5,45.4,49.5ZM23.9,46.8a.8.8,0,0,1-.7-.5c0-.4.2-.8.6-.8A8.2,8.2,0,0,0,27,43.8l1-.7a.8.8,0,0,1,1,.1.8.8,0,0,1-.2,1l-1,.7A9.7,9.7,0,0,1,24,46.8Zm-4.3-2.3a.9.9,0,0,1-.6-.3L18.5,43a10.7,10.7,0,0,1-.7-4.1h1.3a9,9,0,0,0,.7,3.7,3.6,3.6,0,0,0,.4.9.7.7,0,0,1-.2.9Zm12.9-3.4a.5.5,0,0,1-.5-.3.6.6,0,0,1,.1-.9A40.5,40.5,0,0,1,36.6,37c.4-.1.8,0,.9.3s.1.8-.3.9a40.5,40.5,0,0,0-4.3,2.7A.5.5,0,0,1,32.5,41.1Zm13.7-1.3a.5.5,0,0,1-.5-.3,6.3,6.3,0,0,0-2.1-1.9,4.7,4.7,0,0,0-1.7-.4.8.8,0,0,1-.6-.8c0-.3.4-.6.7-.6a7.9,7.9,0,0,1,2.2.6,6.6,6.6,0,0,1,2.6,2.4.7.7,0,0,1-.2.9ZM19.4,34.4h-.2a.7.7,0,0,1-.4-.8l.6-1.3a12,12,0,0,1,2.1-3.4.7.7,0,0,1,.9-.2.7.7,0,0,1,.1,1,16.9,16.9,0,0,0-1.9,3.2,3.7,3.7,0,0,0-.5,1.1A.8.8,0,0,1,19.4,34.4Zm6.3-8.2-.5-.2a.8.8,0,0,1,.2-1,16.6,16.6,0,0,1,4.8-2.4.7.7,0,0,1,.8.4.8.8,0,0,1-.4.9,15.7,15.7,0,0,0-4.5,2.2Z" fill="#caba9f"/>
            <path d="M42.3,67.5a.6.6,0,0,1-.6-.6,21.7,21.7,0,0,0-.4-2.5.6.6,0,0,1,.4-.8c.4-.2.7,0,.9.4a27,27,0,0,1,.4,2.8.7.7,0,0,1-.6.7Z" fill="#caba9f"/>
        </symbol>
        <symbol viewBox="0 0 35.7 61.4" id="svg-icon-6">
            <path d="M25.9,26.1h.2a3.1,3.1,0,0,0,1.3-2.7c0-1.2-.7-2.3-2.6-2.4a35.4,35.4,0,0,1-4-.2c-3.1-.6-4.3-2.6-4.3-6C16.5,4.4,18.2,1,23.2.1a53.4,53.4,0,0,1,6-.1A7.8,7.8,0,0,1,33,1.1c1.7,1.1,2.5,3.1,2.5,6.8,0,9-3.6,15.3-9.6,18.2" fill="#efe7be"/>
            <path d="M26.9,8.4a20.9,20.9,0,0,0-.4,3.5v.4H25.2v-.4c0-1.2-.2-2.3-.3-3.5a17.6,17.6,0,0,1-.7-3.3c0-1.3.3-2.4,1.7-2.4s1.6,1.1,1.6,2.4A17.5,17.5,0,0,1,26.9,8.4Zm.7,7.1a1.7,1.7,0,0,1-1.7,1.6,1.6,1.6,0,1,1,0-3.2,1.7,1.7,0,0,1,1.7,1.6Z" fill="#0076a3"/>
            <path d="M11.1,43.3c2.8-3.1,8.5-5.2,13.1-2.8s5.6,9.3,5.6,10.2,0,5.5-3.7,8.4a11.9,11.9,0,0,1-14,0c-5.3-3.9-4.9-11.7-1-15.8" fill="#f19124"/>
            <path d="M25.5,30.8c.9,2.7.3,6.6-2.6,8.6s-7.2.4-7.7.1a6.7,6.7,0,0,1-3.7-4.7,8.1,8.1,0,0,1,4.4-8.3c4-1.9,8.3.8,9.6,4.3" fill="#87589e"/>
            <path d="M15,31.6a1.2,1.2,0,0,1,1.3-.3,1.2,1.2,0,0,1,.5,1c0,.1,0,.6-.3.8a1.1,1.1,0,0,1-1.4,0,.9.9,0,0,1-.1-1.5" fill="#fff"/>
            <path d="M15.5,32a.4.4,0,0,1,.5-.1c.2.1.2.4.2.4a.4.4,0,0,1-.2.3.4.4,0,0,1-.5,0c-.2-.1-.2-.4,0-.6" fill="#1d1d1b"/>
            <path d="M21.5,31.6a1.3,1.3,0,0,1,1.3-.3,1.1,1.1,0,0,1,.6,1,.9.9,0,0,1-.4.8.9.9,0,0,1-1.3,0,1,1,0,0,1-.2-1.5" fill="#fff"/>
            <path d="M22.1,32c.1-.1.3-.2.4-.1s.2.4.2.4a.5.5,0,0,1-.1.3.5.5,0,0,1-.5,0c-.2-.1-.2-.4,0-.6" fill="#1d1d1b"/>
            <path d="M26.3,44.8a102.6,102.6,0,0,1,8.9-13.6l-8.9-1.5a1.3,1.3,0,0,0-.4-1,1.5,1.5,0,0,0-.5,1.6h1.8a1.5,1.5,0,0,0-1.1-.4.6.6,0,0,0,.2,1.1.8.8,0,0,0,.9-.9,1,1,0,0,0-1.2-.5v.8h.9a1.9,1.9,0,0,0-.9-1.5.9.9,0,0,0-.4.8,1.5,1.5,0,0,1-1.3-1.1,2.5,2.5,0,0,0,1.2,1.1.5.5,0,0,1-.6-.7" fill="none" stroke="#f29100" stroke-linecap="round" stroke-linejoin="round"/>
            <path d="M11.7,43.8l-4,1.7C5,46.5,2.3,47.6.5,49.8l9,5.4a1.2,1.2,0,0,0,.8.1c.2-.1,0-.6-.2-.4s-2.4.8-2,1.6a1.4,1.4,0,0,0,1.9-1c-.4-.4-1.4-.1-1.4.5s.8,1.1,1.3.8a1.1,1.1,0,0,0-.2-1.2.6.6,0,0,0-.3.9l.5-.6" fill="none" stroke="#f29100" stroke-linecap="round" stroke-linejoin="round"/>
            <path d="M16.6,36.3a4.1,4.1,0,0,0,2.5,1.3,3.3,3.3,0,0,0,1.4-.1,1.2,1.2,0,0,0,.7-1" fill="none" stroke="#fff" stroke-linecap="round" stroke-linejoin="round" stroke-width="0.75"/>
        </symbol>
        <symbol viewBox="0 0 28.3 24.5" id="svg-icon-7">
            <polygon points="0 4.5 6.4 9.4 9.9 4.3 4.3 0.6 0 4.5" fill="#00a099"/>
            <polygon points="0.2 3.6 7 8.6 9.9 4.3 3.7 0 0.2 3.6" fill="#2dab66"/>
            <path d="M24.3,15.3c-1-2.3-3.7-4.5-6.6-4.1s-4.8,4.2-5,4.7a6.5,6.5,0,0,0,.4,5.4,6.7,6.7,0,0,0,7.6,2.8c3.6-1.2,4.9-5.6,3.6-8.8" fill="#80c08d"/>
            <path d="M17,4a4.3,4.3,0,0,0-2.7,4.4c.3,2.3,2.7,3.2,3,3.3a4.1,4.1,0,0,0,3.5-.3,4.4,4.4,0,0,0,1.8-5.1C21.9,3.9,19,3.1,17,4" fill="#f19124"/>
            <path d="M16.4,6.9a.6.6,0,0,1,.7-.2.7.7,0,0,1,.4.6.6.6,0,0,1-.2.5.8.8,0,0,1-.9,0,.6.6,0,0,1,0-.9" fill="#fff"/>
            <path d="M16.7,7.1h.2a.2.2,0,0,1,.2.2.3.3,0,0,1-.1.2h-.3a.3.3,0,0,1,0-.4" fill="#1d1d1b"/>
            <path d="M20.3,6.9a.8.8,0,0,1,.8-.2.8.8,0,0,1,.3.6.6.6,0,0,1-.2.5.6.6,0,0,1-.8,0,.6.6,0,0,1-.1-.9" fill="#fff"/>
            <path d="M20.6,7.1h.3c.1,0,.1.2.1.2v.2h-.4a.3.3,0,0,1,0-.4" fill="#1d1d1b"/>
            <path d="M17.2,9.6c1.1,1.1,2.1.4,2.9-.1" fill="none" stroke="#fff" stroke-linecap="round" stroke-linejoin="round" stroke-width="0.25"/>
            <path d="M17,14.4h-.8A7.7,7.7,0,0,1,13.4,12,23,23,0,0,1,8.9,5.2c.1.3-.2.7-.4.6s-.4-.5-.4-.8A2.1,2.1,0,0,1,9.9,6.3a2,2,0,0,1-2-1.2,2.3,2.3,0,0,1,1.8.1.3.3,0,0,1-.4.2.4.4,0,0,1,.7-.2,1.1,1.1,0,0,1-1.1.4c-.1-.1-.2-.2-.2-.3s.1-.6.4-.5.4.2.6.5S8.6,4.9,8.5,4.2s.2.3.2.5-.1.4-.2.3.3-.5.5-.3" fill="none" stroke="#80c08d" stroke-linecap="round" stroke-linejoin="round" stroke-width="0.5"/>
            <path d="M22,13.4a7.5,7.5,0,0,1,5.5,2.1c.3.3.5.5.5.9a1.1,1.1,0,0,1-.3.7,7.5,7.5,0,0,1-3.1,2.5V19a.5.5,0,0,0-.7.6,1,1,0,0,0,.9-.7,1.7,1.7,0,0,0-1.8,1,2.1,2.1,0,0,0,1.7-.4,1.1,1.1,0,0,0-1.2.6,1.4,1.4,0,0,0,1.5-.6.9.9,0,0,0-.9,1.2,1.2,1.2,0,0,0,.5-.5h-.9a1.1,1.1,0,0,0,1.1-.3,2.1,2.1,0,0,0-1.3.5,1.4,1.4,0,0,0,.9,0c-.3-.1-.8,0-.8.3" fill="none" stroke="#80c08d" stroke-linecap="round" stroke-linejoin="round" stroke-width="0.5"/>
        </symbol>
        <symbol viewBox="0 0 51.5 76.2" id="svg-icon-8">
            <path d="M1.7,45.3c2.8-5.6,9.7-10.8,17-9.3S29.8,47.2,30.2,48.5s2.1,7.8-1.9,13.4S15.9,70.4,9,67.6C.3,64-2,52.8,1.7,45.3Z" fill="#80c08d"/>
            <path d="M25.9,19.3c2.2,3.9,2.4,10.3-1.5,14.3S13,36.3,12.1,36a10.7,10.7,0,0,1-7.3-6.4A13,13,0,0,1,9.4,15.2C15.2,11.1,22.9,14,25.9,19.3Z" fill="#df5a49"/>
            <path d="M11.4,19.9a2.1,2.1,0,0,1,2.4.2,2,2,0,0,1,.4,2.1,1.8,1.8,0,0,1-1.1,1.3,2.1,2.1,0,0,1-2.4-.8A2,2,0,0,1,11.4,19.9Z" fill="#fff"/>
            <path d="M12,21a.7.7,0,0,1,.9,0,1,1,0,0,1,.2.8c-.1.1-.1.4-.4.5a1,1,0,0,1-1-.3A.7.7,0,0,1,12,21Z" fill="#1d1d1b"/>
            <path d="M20.2,22.7a2.1,2.1,0,0,1,2.5.3c.8.7.4,1.9.4,2.1A2.2,2.2,0,0,1,22,26.3a2.3,2.3,0,0,1-2.5-.8A2,2,0,0,1,20.2,22.7Z" fill="#fff"/>
            <path d="M20.9,23.8a.6.6,0,0,1,.9.1.6.6,0,0,1,.1.7.6.6,0,0,1-.4.5.8.8,0,0,1-.9-.3C20.3,24.5,20.5,24,20.9,23.8Z" fill="#1d1d1b"/>
            <path d="M11.6,27.9c-.3,1.6,1.1,3.4,3.1,4s4.1-.4,4.4-2" fill="none" stroke="#fff" stroke-linecap="round" stroke-linejoin="round" stroke-width="0.75"/>
            <path d="M8.1,40.2a5.4,5.4,0,0,1-1.6-1.4c-1.9-2.3-2.3-6.2-2.8-9.9C2.8,21,1.9,12.7,3.5,3.8,3.4,4.8,2.2,5.6,1.8,5s-.2-1.9.4-2.7c1.5,1,2.2,3.3,1.9,5.8C2.3,7.6,1.2,5.2,1.7,2.3A5.2,5.2,0,0,1,5.4,4.8c-.4.6-1.1.6-1.2,0S6.1,3.8,6,5s-2.2.8-2.8,0a1.6,1.6,0,0,1-.3-1.2c.3-.9,1.2-1.3,1.7-.9a3.6,3.6,0,0,1,.6,2C3.8,4.6,3.3,2.5,4,.5A2.9,2.9,0,0,1,4,2.1c-.2.6-.9,1.1-1.1.7s1.4-1,1.5-.3" fill="none" stroke="#80c08d" stroke-linecap="round" stroke-linejoin="round"/>
            <path d="M28.6,47.5a6.5,6.5,0,0,1,1.9.4c2.6.9,4.7,3.6,6.8,6.2,4.3,5.6,8.8,11.5,11.5,18.9-.4-.8.3-2,.9-1.7s1,1.4.9,2.3A5.7,5.7,0,0,1,46.4,70c1.7-.4,3.7,1,4.6,3.3a4.9,4.9,0,0,1-4.1-.3c0-.6.6-.9,1-.5s-1.2,1.6-1.7.7a2,2,0,0,1,2.4-1.3,1.4,1.4,0,0,1,.7.8c.2.8-.4,1.5-.9,1.4s-1-.7-1.4-1.3c1.2-.3,2.6,1.1,2.9,2.9a2.7,2.7,0,0,1-.7-1.3c-.1-.5.2-1.1.6-.9s-.7,1.3-1.1.9" fill="none" stroke="#80c08d" stroke-linecap="round" stroke-linejoin="round"/>
        </symbol>
        <symbol viewBox="0 0 80.3 65.1" id="svg-icon-9">
            <path d="M41.4,42.1c3.5-4,10.4-6.6,15.9-3.8S63.9,50,63.9,51.1s-.1,6.9-4.6,10.6a14.1,14.1,0,0,1-17,.3C36,57.1,36.7,47.4,41.4,42.1Z" fill="#fcc200"/>
            <path d="M63.4,31.4c-.4,3.5-3.2,7.7-7.5,8.5s-8.5-3.5-8.9-4.1a8.4,8.4,0,0,1-1.7-7.4,10.2,10.2,0,0,1,9.4-7.1C60.3,21.3,63.9,26.7,63.4,31.4Z" fill="#e6334c"/>
            <path d="M51,26.7a1.4,1.4,0,0,1,1.6.3c.5.6.1,1.4.1,1.5a1.4,1.4,0,0,1-.9.7,1.3,1.3,0,0,1-1.5-.7A1.3,1.3,0,0,1,51,26.7Z" fill="#fff"/>
            <path d="M51.3,27.4c.2,0,.5,0,.6.2a.5.5,0,0,1,.1.5.7.7,0,0,1-.4.3.9.9,0,0,1-.6-.3A.6.6,0,0,1,51.3,27.4Z" fill="#1d1d1b"/>
            <path d="M58.5,30.2a1.4,1.4,0,0,1,1.6.4,1.2,1.2,0,0,1,.1,1.4,1.5,1.5,0,0,1-.8.8,1.5,1.5,0,0,1-1.6-.8A1.4,1.4,0,0,1,58.5,30.2Z" fill="#fff"/>
            <path d="M58.8,31a.6.6,0,0,1,.7.1.8.8,0,0,1,0,.5.3.3,0,0,1-.3.3.4.4,0,0,1-.6-.3C58.4,31.4,58.6,31.1,58.8,31Z" fill="#1d1d1b"/>
            <path d="M50.3,33a4.8,4.8,0,0,0,2.2,2.7,4.6,4.6,0,0,0,1.6.7,1.5,1.5,0,0,0,1.4-.8" fill="none" stroke="#fff" stroke-linecap="round" stroke-linejoin="round" stroke-width="0.75"/>
            <path d="M7.2,1.4V22.7s3.6,1.4,3.6,0S9.6,1.4,9.6,1.4Z" fill="#98cc96"/>
            <polygon points="10 4.2 15.6 4.2 15.6 6.8 15.6 22.7 9.6 22.7 10 4.2" fill="#df5a49"/>
            <polygon points="21.6 7.1 14.4 7.1 14.4 22.9 21.6 22.7 21.6 7.1" fill="#a1e8d9"/>
            <rect x="20.4" y="1.4" width="7.2" height="21.24" fill="#d9bb96"/>
            <polygon points="33.6 8.5 26.4 8.5 26.6 22.7 33.6 22.7 33.6 8.5" fill="#f5a503"/>
            <polygon points="32.4 0 33.6 22.7 40.8 22.7 40.8 0 32.4 0" fill="#22a8b5"/>
            <polygon points="44.4 7.1 40.8 7.1 40.8 21.2 45.4 22.4 44.4 7.1" fill="#f2c2d8"/>
            <polygon points="2.4 1.4 2.8 22.4 8 21.2 8.4 0 2.4 0 2.4 1.4" fill="#fdc300"/>
            <path d="M40.6,29.7V51S37,52.4,37,51s1.2-21.3,1.2-21.3Z" fill="#0076a3"/>
            <polygon points="37.8 32.6 32.2 32.6 32.2 35.2 32.2 51 38.2 51 37.8 32.6" fill="#f5a04e"/>
            <polygon points="26.2 35.4 33.4 35.4 33.4 51.2 26.2 51 26.2 35.4" fill="#df5a49"/>
            <rect x="20.2" y="29.7" width="7.2" height="21.24" fill="#9ccc8d"/>
            <polygon points="14.2 36.8 21.4 36.8 21.2 51 14.2 51 14.2 36.8" fill="#cfc291"/>
            <polygon points="15.4 28.3 14.2 51 7 51 7 28.3 15.4 28.3" fill="#a1e8d9"/>
            <polygon points="3.4 35.4 7 35.4 7 49.6 2.4 50.7 3.4 35.4" fill="#f2385a"/>
            <polygon points="45.4 29.7 45 50.7 39.8 49.6 39.4 28.3 45.4 28.3 45.4 29.7" fill="#45b29d"/>
            <rect y="4.2" width="3.8" height="60.88" fill="#bfa36f"/>
            <rect x="43.2" y="4.2" width="3.8" height="60.88" fill="#bfa36f"/>
            <rect x="2.4" y="49.6" width="43.2" height="2.83" fill="#bfa36f"/>
            <rect x="2.4" y="21.2" width="43.2" height="2.83" fill="#bfa36f"/>
            <path d="M60.1,44.9A20.2,20.2,0,0,0,70.8,38a20.5,20.5,0,0,0,4.6-12" fill="none" stroke="#fcc200" stroke-miterlimit="10"/>
            <polygon points="69.7 13.6 71.6 28.8 73.5 27.3 71.6 13.6 69.7 13.6" fill="#f2c2d8"/>
            <polygon points="69.7 13.6 77.2 10.6 80.3 25.7 72.7 27.3 69.7 13.6" fill="#ffe9a3"/>
            <path d="M74,28a18.3,18.3,0,0,0-.3-4.7l1.5,4L75,23.5a17,17,0,0,0,.6,3.1l.4-3.8v4.1a10.9,10.9,0,0,1,.7-3,5.7,5.7,0,0,1-.2,2.6,1.2,1.2,0,0,1,.1-1,1.2,1.2,0,0,1-.3,1.5l.5-1.4v.7" fill="none" stroke="#fcc200" stroke-linecap="round" stroke-linejoin="round"/>
        </symbol>
        <symbol viewBox="0 0 10 1" id="svg-minus">
            <line y1="0.5" x2="10" y2="0.5" fill="none" stroke="#88579e" stroke-miterlimit="10"/>
        </symbol>
        <symbol viewBox="0 0 11.4 11.4" id="svg-padlock-closed">
            <circle cx="5.7" cy="5.7" r="5.6" fill="#d93d1a" stroke="#fff" stroke-miterlimit="10" stroke-width="0.25"/>
            <rect x="3.4" y="4.3" width="4.6" height="4.6" fill="#fff"/>
            <circle cx="5.8" cy="5.7" r="0.7" fill="#d93d1a"/>
            <rect x="5.5" y="5.6" width="0.6" height="2.67" rx="0.2" ry="0.2" fill="#d93d1a"/>
            <path d="M4.2,5.4A.4.4,0,0,1,3.9,5V3.4A1.5,1.5,0,0,1,5.4,1.9h.7A1.5,1.5,0,0,1,7.6,3.4a.5.5,0,0,1-.3.3.4.4,0,0,1-.4-.3.8.8,0,0,0-.8-.9H5.4a.9.9,0,0,0-.9.9V5C4.5,5.2,4.4,5.4,4.2,5.4Z" fill="#fff"/>
        </symbol>
        <symbol viewBox="0 0 11.4 11.4" id="svg-padlock-opened">
            <circle cx="5.7" cy="5.7" r="5.6" fill="#80d48e" stroke="#fff" stroke-miterlimit="10" stroke-width="0.25"/>
            <rect x="3.4" y="4.3" width="4.6" height="4.6" fill="#fff"/>
            <circle cx="5.8" cy="5.7" r="0.7" fill="#2fcca4"/>
            <rect x="5.5" y="5.6" width="0.6" height="2.67" rx="0.2" ry="0.2" fill="#2fcca4"/>
            <path d="M4.2,5.4A.4.4,0,0,1,3.9,5V3.4A1.5,1.5,0,0,1,5.4,1.9h.7A1.5,1.5,0,0,1,7.6,3.4a.5.5,0,0,1-.3.3.4.4,0,0,1-.4-.3.8.8,0,0,0-.8-.9H5.4a.9.9,0,0,0-.9.9V5C4.5,5.2,4.4,5.4,4.2,5.4Z" fill="#fff"/>
        </symbol>
        <symbol viewBox="0 0 10 10" id="svg-plus">
            <line y1="5" x2="10" y2="5" stroke-miterlimit="10"/>
            <line x1="5" x2="5" y2="10" stroke-miterlimit="10"/>
        </symbol>
        <symbol viewBox="0 0 19 19" id="svg-plus-square">
            <path d="M10,9h3.5C13.8,9,14,9.2,14,9.5S13.8,10,13.5,10H10v3.5c0,0.3-0.2,0.5-0.5,0.5S9,13.8,9,13.5V10H5.5C5.2,10,5,9.8,5,9.5S5.2,9,5.5,9H9V5.5C9,5.2,9.2,5,9.5,5S10,5.2,10,5.5V9z M0,2.5C0,1.1,1.1,0,2.5,0h14C17.9,0,19,1.1,19,2.5v14c0,1.4-1.1,2.5-2.5,2.5h-14C1.1,19,0,17.9,0,16.5V2.5z M1,2.5v14C1,17.3,1.7,18,2.5,18h14c0.8,0,1.5-0.7,1.5-1.5v-14C18,1.7,17.3,1,16.5,1h-14C1.7,1,1,1.7,1,2.5z"/>
        </symbol>
        <symbol viewBox="0 0 337 433" id="svg-share">
            <path d="M337,192.5v192c0,26.7-21.8,48.5-48.5,48.5h-240C21.8,433,0,411.2,0,384.5v-192C0,165.8,21.8,144,48.5,144h40c4.7,0,8.5,3.8,8.5,8.5s-3.8,8.5-8.5,8.5h-40C31.1,161,17,175.1,17,192.5v192c0,17.4,14.1,31.5,31.5,31.5h240c17.4,0,31.5-14.1,31.5-31.5v-192c0-17.4-14.1-31.5-31.5-31.5h-40c-4.7,0-8.5-3.8-8.5-8.5s3.8-8.5,8.5-8.5h40C315.2,144,337,165.8,337,192.5z M94.5,94.5L160,29v252.5c0,4.7,3.8,8.5,8.5,8.5s8.5-3.8,8.5-8.5V29l65.5,65.5c1.7,1.7,3.8,2.5,6,2.5s4.4-0.8,6-2.5c3.3-3.3,3.3-8.7,0-12l-80-80c0,0,0,0,0,0c-0.2-0.2-0.4-0.4-0.6-0.5c-0.1-0.1-0.2-0.2-0.3-0.2c-0.1-0.1-0.2-0.2-0.4-0.3c-0.1-0.1-0.2-0.1-0.4-0.2c-0.1-0.1-0.2-0.1-0.3-0.2c-0.1-0.1-0.3-0.1-0.4-0.2c-0.1-0.1-0.2-0.1-0.4-0.2c-0.1-0.1-0.2-0.1-0.4-0.1c-0.1,0-0.3-0.1-0.4-0.1c-0.1,0-0.3-0.1-0.4-0.1c-0.1,0-0.3-0.1-0.4-0.1c-0.1,0-0.3,0-0.5-0.1c-0.1,0-0.2,0-0.4-0.1c-0.6-0.1-1.1-0.1-1.7,0c-0.1,0-0.2,0-0.4,0.1c-0.2,0-0.3,0-0.5,0.1c-0.1,0-0.3,0.1-0.4,0.1c-0.1,0-0.3,0.1-0.4,0.1c-0.1,0-0.3,0.1-0.4,0.1c-0.1,0-0.3,0.1-0.4,0.1c-0.1,0.1-0.2,0.1-0.4,0.2c-0.1,0.1-0.3,0.1-0.4,0.2c-0.1,0.1-0.2,0.1-0.3,0.2c-0.1,0.1-0.3,0.1-0.4,0.2c-0.1,0.1-0.2,0.2-0.4,0.3c-0.1,0.1-0.2,0.1-0.3,0.2c-0.2,0.2-0.4,0.4-0.6,0.6l-80,80c-3.3,3.3-3.3,8.7,0,12C85.8,97.8,91.2,97.8,94.5,94.5z"/>
        </symbol>
        <symbol viewBox="0 0 132.81 63.75" id="svg-team-1">
            <path d="M87.53,42.29A.5.5,0,0,1,87,41.9c0-.19-.52-.34-.68-.39-7.3-2.25-12.81-8-17.68-13.06a.47.47,0,0,1-.14-.37.44.44,0,0,1,.17-.35l.34-.31a.5.5,0,1,1,.71.71c4.69,4.88,10,10.3,16.9,12.43.39.12,1.19.37,1.36,1.12a.5.5,0,0,1-.38.6h-.07Z" style="fill:#f29100"/>
            <path d="M76.41,9.58c3.19,3,5.29,8.83,2.85,13.69-2.82,5.64-9.69,5.82-10.6,5.82-1.07,0-5.65.06-8.61-3.77a12.63,12.63,0,0,1,0-14.65C64.14,5.17,72.13,5.6,76.41,9.58Z" style="fill:#0eb8ec"/>
            <path d="M52.52,40.27c2.57-6.07,9.75-12.07,17.84-11.1C79.74,30.3,83.49,40,84,41.28c.56,1.51,3,8-.94,14.19a18.82,18.82,0,0,1-20.62,7.59C52.55,60,49.08,48.41,52.52,40.27Z" style="fill:#ffe62d"/>
            <path d="M63.23,14.44a1.87,1.87,0,0,1,3.33,1.32,1.86,1.86,0,0,1-.65,1.48,2.16,2.16,0,0,1-2.5,0,1.94,1.94,0,0,1-.24-2.73Z" style="fill:#fff"/>
            <path d="M64.14,15.23a.7.7,0,0,1,1-.12.72.72,0,0,1,.26.61.67.67,0,0,1-.24.55.8.8,0,0,1-.93,0,.74.74,0,0,1-.07-1Z" style="fill:#1d1d1b"/>
            <path d="M72.23,14.44a1.86,1.86,0,0,1,3.32,1.32,1.79,1.79,0,0,1-.65,1.48,2.12,2.12,0,0,1-2.49,0,1.94,1.94,0,0,1-.24-2.73Z" style="fill:#fff"/>
            <path d="M73.13,15.23a.77.77,0,0,1,.87-.18.75.75,0,0,1,.37.67.69.69,0,0,1-.24.55.8.8,0,0,1-.93,0,.73.73,0,0,1-.08-1Z" style="fill:#1d1d1b"/>
            <path d="M69.65,24.88c-2.09,0-4.05-1.42-4.17-3.06a.38.38,0,0,1,.35-.41h0a.39.39,0,0,1,.4.35c.1,1.3,1.83,2.45,3.6,2.36a3.69,3.69,0,0,0,2.62-1.21A2,2,0,0,0,73,21.46a.37.37,0,0,1,.33-.41h0a.4.4,0,0,1,.41.34,2.73,2.73,0,0,1-.73,2,4.51,4.51,0,0,1-3.15,1.46Z" style="fill:#fff"/>
            <path d="M90.67,40a1.26,1.26,0,0,1-.72-.3c-1.8-1.33-4-1.82-6.34-2.33a19.53,19.53,0,0,1-6.13-2.09.5.5,0,0,1,.52-.86,18.84,18.84,0,0,0,5.83,2,17.13,17.13,0,0,1,6.72,2.51l.09.06h0l6.42-7.15a3,3,0,0,1-.45-1.22,1.07,1.07,0,0,1,.29-1.1,5.81,5.81,0,0,1-.09-.58.51.51,0,0,1,.48-.54h0a2.73,2.73,0,0,1,1.13.2.83.83,0,0,1,.21-.06h.06a1,1,0,0,1,.53-.25.49.49,0,0,1,.5.2.45.45,0,0,1,.27.12h0a.51.51,0,0,1,.47-.25A1.89,1.89,0,0,1,102,29.42a.5.5,0,0,1-.24.66h0c.15.14.29.29.43.44a.47.47,0,0,1,.07.57.5.5,0,0,1-.52.26l-.32-.07a.57.57,0,0,1-.07.33.5.5,0,0,1-.61.36.56.56,0,0,1-.26-.17l-.36-.45H100l-.08.08a.54.54,0,0,1-.41.11,1.14,1.14,0,0,1-.32.07,2,2,0,0,1-.18.32,1.16,1.16,0,0,1-.9.5h-.25l-6.51,7.26a1,1,0,0,1-.55.36Z" style="fill:#ffe62d"/>
            <path d="M89.45,34.62C93.69,30,102,27,108.93,30.48c8,4,8.23,13.86,8.23,15.18,0,1.52.06,8.08-5.4,12.34a17.85,17.85,0,0,1-20.83.13C83.12,52.23,83.76,40.77,89.45,34.62Z" style="fill:#f19124"/>
            <path d="M110.77,16.15c1.34,3.91.48,9.75-3.73,12.72-4.88,3.45-10.7.54-11.47.14s-4.74-2.47-5.51-7a12,12,0,0,1,6.5-12.27C102.47,7,109,10.91,110.77,16.15Z" style="fill:#87589e"/>
            <path d="M95.23,17.29A1.53,1.53,0,0,1,98,18.38a1.47,1.47,0,0,1-.53,1.22,1.77,1.77,0,0,1-2.06,0,1.59,1.59,0,0,1-.23-2.25Z" style="fill:#fff"/>
            <path d="M96,18a.57.57,0,0,1,1,.4.58.58,0,0,1-.2.46.66.66,0,0,1-.76,0A.6.6,0,0,1,96,18Z" style="fill:#1d1d1b"/>
            <path d="M105,17.29a1.53,1.53,0,0,1,2.15-.27,1.55,1.55,0,0,1,.58,1.36,1.47,1.47,0,0,1-.53,1.22,1.77,1.77,0,0,1-2.06,0,1.6,1.6,0,0,1-.19-2.25Z" style="fill:#fff"/>
            <path d="M105.72,18a.57.57,0,0,1,1,.4.58.58,0,0,1-.2.46.66.66,0,0,1-.76,0,.6.6,0,0,1-.09-.83Z" style="fill:#1d1d1b"/>
            <path d="M102.29,26.59a6.74,6.74,0,0,1-1-.08,5.85,5.85,0,0,1-4-1.93.39.39,0,0,1,.07-.53.38.38,0,0,1,.53.06,5.1,5.1,0,0,0,3.5,1.66,3.66,3.66,0,0,0,1.8-.08,1.28,1.28,0,0,0,.86-1.15.38.38,0,0,1,.4-.36.39.39,0,0,1,.35.3,2,2,0,0,1-1.34,1.91A3.31,3.31,0,0,1,102.29,26.59Z" style="fill:#fff"/>
            <polygon points="0 8.5 7.75 22.49 18.23 15.9 10.99 4.75 0 8.5" style="fill:#00a099"/>
            <polygon points="1.12 7 9.55 21.44 18.12 15.99 10.37 3.25 1.12 7" style="fill:#2dab66"/>
            <path d="M41.06,44.44c-1.93-4.6-7.23-9.1-13.12-8.27-6.82,1-9.46,8.38-9.79,9.38-.39,1.16-2.07,6.13.83,10.81s9.48,7.47,15.11,5.56C41.24,59.49,43.65,50.61,41.06,44.44Z" style="fill:#80c08d"/>
            <path d="M26.6,21.8c-3,1.3-5.85,4.84-5.32,8.78.62,4.57,5.39,6.33,6,6.56a8,8,0,0,0,7-.56,9.16,9.16,0,0,0,3.58-10.11C36.29,21.68,30.57,20.07,26.6,21.8Z" style="fill:#e6334c"/>
            <path d="M25.36,27.56a1.29,1.29,0,1,1,1.78,1.88,1.44,1.44,0,0,1-1.66,0,1.31,1.31,0,0,1-.15-1.85Z" style="fill:#fff"/>
            <path d="M26,28.09a.51.51,0,0,1,.58-.12.53.53,0,0,1,.25.45.45.45,0,0,1-.16.36.54.54,0,0,1-.62,0A.49.49,0,0,1,26,28.09Z" style="fill:#1d1d1b"/>
            <path d="M33.23,27.56A1.29,1.29,0,1,1,35,29.44a1.44,1.44,0,0,1-1.66,0,1.31,1.31,0,0,1-.15-1.85Z" style="fill:#fff"/>
            <path d="M33.83,28.09a.51.51,0,0,1,.58-.12.53.53,0,0,1,.25.45.45.45,0,0,1-.16.36.54.54,0,0,1-.62,0A.49.49,0,0,1,33.83,28.09Z" style="fill:#1d1d1b"/>
            <path d="M29.48,34.6a3.61,3.61,0,0,1-2.68-1.27.37.37,0,0,1,.54-.52c1.83,1.92,3.65.8,5.26-.19l.27.28.2.32A7.31,7.31,0,0,1,29.48,34.6Z" style="fill:#fff"/>
            <path d="M36.22,40.51a.51.51,0,0,1-.46-.29.5.5,0,0,1,.24-.66,5.33,5.33,0,0,0,1.26-.84c1.63-1.46,2.4-3.92,3.08-6.1A56.91,56.91,0,0,0,43.23,20H43a.49.49,0,0,1-.62-.5,5.91,5.91,0,0,1,.14-1.11,2.43,2.43,0,0,1-1.1-.39.48.48,0,0,1-.2-.44,1.17,1.17,0,0,1,1-1.08h0a1.68,1.68,0,0,1,.5-.62v-.07a1,1,0,0,1,.32-.41,2.57,2.57,0,0,1,.24-.86.5.5,0,0,1,.49-.31.49.49,0,0,1,.45.37,2.84,2.84,0,0,1,.1.82.38.38,0,0,1,.13.09l.22-.13a.49.49,0,0,1,.47,0h.14a.51.51,0,0,1,.39.12.5.5,0,0,1,.17.38,4.78,4.78,0,0,1-.1,1,1.56,1.56,0,0,1-.28.88,4.26,4.26,0,0,1-1.23,1.65c-.25,4.85-1.69,9.44-3,13.56-.72,2.3-1.54,4.91-3.37,6.55a6.54,6.54,0,0,1-1.5,1Zm8.49-24a.33.33,0,0,1,0,.14v-.14Z" style="fill:#80c08d"/>
            <path d="M23.2,40.51a.74.74,0,0,1-.21,0,6.33,6.33,0,0,1-1.5-1c-1.84-1.64-2.65-4.25-3.37-6.55-1.29-4.12-2.72-8.71-3-13.56a4.24,4.24,0,0,1-1.22-1.65,1.53,1.53,0,0,1-.28-.88,4.79,4.79,0,0,1-.11-1,.52.52,0,0,1,.17-.38.51.51,0,0,1,.39-.12h.15a.49.49,0,0,1,.47,0l.22.13a.34.34,0,0,1,.12-.09,3.23,3.23,0,0,1,.1-.82.51.51,0,0,1,.45-.37.52.52,0,0,1,.5.31,2.81,2.81,0,0,1,.23.86,1,1,0,0,1,.33.41.09.09,0,0,1,0,.07,1.7,1.7,0,0,1,.51.62h0a1.18,1.18,0,0,1,1,1.08A.52.52,0,0,1,18,18a2.3,2.3,0,0,1-1.07.44,5.2,5.2,0,0,1,.15,1.11.53.53,0,0,1-.19.41.5.5,0,0,1-.44.09L16.18,20a57.34,57.34,0,0,0,2.89,12.67c.68,2.18,1.46,4.64,3.08,6.1a5.65,5.65,0,0,0,1.26.84.5.5,0,0,1,.23.67.49.49,0,0,1-.44.28ZM14.64,16.72v-.17h0A.49.49,0,0,0,14.64,16.72Z" style="fill:#80c08d"/>
            <polygon points="46.98 2.75 54.1 0 55.6 14.49 48.23 14.62 46.98 2.75" style="fill:#fcea0d"/>
            <polygon points="46.85 2.87 47.98 16.49 56.85 15.62 55.97 1.62 46.85 2.87" style="fill:#f8b133"/>
            <path d="M55.52,39.31a.51.51,0,0,1-.33-.13l-8.51-7.29a3.15,3.15,0,0,1-1-1.28,3.35,3.35,0,0,1,.22-2.33,48.15,48.15,0,0,1,2.22-5.42c.15-.31.31-.61.47-.91a17.31,17.31,0,0,0,1.15-2.47c.11-.33.21-.67.3-1a10.14,10.14,0,0,1,.68-1.94.45.45,0,0,1-.11-.17.48.48,0,0,1,.08-.5h-.06a.5.5,0,0,1-.28-.91h-.2a.52.52,0,0,1-.4-.32.51.51,0,0,1,.09-.5,7.07,7.07,0,0,1,1.85-1.55.71.71,0,0,1,.85,0,.63.63,0,0,1,.18.61.61.61,0,0,1-.51.43.57.57,0,0,1-.26,0c-.19.13-.38.26-.56.41a6.46,6.46,0,0,0,1.07-.18c.27-.11.56-.22.85-.31a.49.49,0,0,1,.61.3.5.5,0,0,1-.22.62.58.58,0,0,1,.11.15.51.51,0,0,1,0,.48.51.51,0,0,1,.4.23.49.49,0,0,1-.09.65l-.31.26v.15a.5.5,0,0,1,.59.24.5.5,0,0,1-.13.63L54,17.5a.48.48,0,0,1,.07.23.54.54,0,0,1-.23.43,4.17,4.17,0,0,1-2.35.67.48.48,0,0,1-.37-.17v.15c-.09.35-.19.71-.31,1.06a18.32,18.32,0,0,1-1.22,2.62l-.46.89a48.86,48.86,0,0,0-2.17,5.31,2.52,2.52,0,0,0-.23,1.64,2.54,2.54,0,0,0,.76.87L56,38.5a.5.5,0,0,1,.06.7.53.53,0,0,1-.38.18Zm-4.2-21.73a1.59,1.59,0,0,0-.07.2l.39-.18Z" style="fill:#ffe62d"/>
            <path d="M112.57,4.25s2.5,11,2.87,10.74,16.49-4.5,16.49-4.5l-2.74-9.37Z" style="fill:#5bc4f1"/>
            <polygon points="112.07 5.5 114.82 15.62 132.81 10.87 129.69 0.25 112.07 5.5" style="fill:#009ee2"/>
            <path d="M107,38.43a.5.5,0,0,1-.06-1,7.57,7.57,0,0,0,3.49-1.76,48.52,48.52,0,0,0,8.26-8.07c3.57-4.45,5.44-8.71,5.55-12.68h0A.41.41,0,0,1,124,15a.56.56,0,0,1-.17.26v.12a.47.47,0,0,1-.39.31.53.53,0,0,1-.46-.18,4.4,4.4,0,0,1-.68-1.24,1.32,1.32,0,0,1-.62-.15A1.18,1.18,0,0,1,121,13a1.37,1.37,0,0,1,1.11-1.31,3.68,3.68,0,0,1,.23-.66.51.51,0,0,1,.46-.3h0a.52.52,0,0,1,.44.27l.09-.22a.49.49,0,0,1,.45-.29h0v-.07a.51.51,0,0,1,.7-.17l.09.07a3.05,3.05,0,0,1,.62,1h.12a.51.51,0,0,1,.5.49V12a8.18,8.18,0,0,1,0,1.4V14a.48.48,0,0,1-.15.36.5.5,0,0,1-.52.26h0c0,4.29-2,8.86-5.78,13.61A49.32,49.32,0,0,1,111,36.46a8.43,8.43,0,0,1-4,2Z" style="fill:#f29100"/>
        </symbol>
        <symbol viewBox="0 0 57.65 48.43" id="svg-team-2">
            <path d="M36.07,28.84c-2.35-5-8.79-9.87-15.94-9-8.3,1-11.5,9.1-11.91,10.18-.48,1.26-2.52,6.66,1,11.73s11.52,8.12,18.36,6C36.29,45.18,39.22,35.54,36.07,28.84Z" style="fill:#d9bb96"/>
            <rect x="46.23" y="15.12" width="9.58" height="1.37" rx="0.5" transform="translate(16.53 56.58) rotate(-66.98)" style="fill:#4ad9d9"/>
            <circle cx="53.55" cy="9.56" r="4.1" style="fill:#4ad9d9"/>
            <circle cx="53.54" cy="9.59" r="3.44" style="fill:#fff"/>
            <path d="M51.83,9.21a1.6,1.6,0,0,1,1.36-1.43" style="fill:#fff"/>
            <path d="M52.45,9.21a1,1,0,0,1,.9-.82c.79-.14.46-1.35-.33-1.21a2.26,2.26,0,0,0-1.82,2,.63.63,0,0,0,1.25,0Z" style="fill:#a1e8d9"/>
            <path d="M40.78,27.55a12.26,12.26,0,0,1-2-.23l-9.39-1.68a.38.38,0,0,1,.13-.74l9.39,1.68a5.69,5.69,0,0,0,3.32-.06,5.69,5.69,0,0,0,2-2.05l3-4.22a6,6,0,0,1,1.55-1.7L47.84,18a.38.38,0,0,1-.15-.46.36.36,0,0,1,.42-.23h0a.37.37,0,0,1,.23-.69.28.28,0,0,1,0-.18.35.35,0,0,1,.36-.28h0A.38.38,0,0,1,49,16h0l-.43-.3a.39.39,0,0,1-.13-.46.39.39,0,0,1,.43-.21,6.62,6.62,0,0,1,2.33,1l.75.26a.37.37,0,0,1,.24.44.37.37,0,0,1-.41.29h0l.09.07a.37.37,0,0,1,.1.48.4.4,0,0,1-.31.19.37.37,0,0,1,.14.42.37.37,0,0,1-.35.26v.12a.37.37,0,0,1,.08.39.39.39,0,0,1-.35.24,4.08,4.08,0,0,1-1.5-.29,1.89,1.89,0,0,0-.44.19,5.43,5.43,0,0,0-1.43,1.55l-3,4.22a6.35,6.35,0,0,1-2.33,2.3A4.23,4.23,0,0,1,40.78,27.55Z" style="fill:#d9bb96"/>
            <path d="M6.09,44.54a.35.35,0,0,1-.22-.08A.38.38,0,0,1,5.74,44h0a.32.32,0,0,1,0-.3A2.42,2.42,0,0,1,6,43.34H5.7a.37.37,0,0,1-.36-.22.39.39,0,0,1,.08-.42l.71-.7a.37.37,0,0,1,0-.38l.25-.44a11.63,11.63,0,0,1-2.51,1.15.36.36,0,0,1-.44-.17.38.38,0,0,1,.08-.47l2.5-2-4.1-4.82A3.57,3.57,0,0,0,.28,33.55.38.38,0,0,1,0,33.26a.35.35,0,0,1,.14-.37c3.94-3,8-6,12.06-8.81a2.72,2.72,0,0,1,1.92-.68.38.38,0,0,1,.31.43.35.35,0,0,1-.4.31h0a2.1,2.1,0,0,0-1.38.56c-3.88,2.7-7.75,5.53-11.53,8.4a5.49,5.49,0,0,1,1.33,1.26l4.34,5.11a.33.33,0,0,1,.09.27.43.43,0,0,1-.13.26l-.5.42a12.81,12.81,0,0,0,1.48-1.16.36.36,0,0,1,.51,0h0a.37.37,0,0,1,0,.5c-.28.36-.55.73-.8,1.1a.36.36,0,0,1,.32.19.35.35,0,0,1-.06.45l-.61.61c.12-.09.23-.19.34-.29a.36.36,0,0,1,.51,0h0A.37.37,0,0,1,8,42.3l-.12.16v.06a.43.43,0,0,1,0,.16h0a.37.37,0,0,1-.08.52h0L6.5,44.32a.31.31,0,0,1-.09.07l-.09.07A.4.4,0,0,1,6.09,44.54Z" style="fill:#d9bb96"/>
            <path d="M28.24,2.71C31.1,5.38,33,10.63,30.8,15c-2.54,5-8.7,5.21-9.52,5.22a9.49,9.49,0,0,1-7.72-3.38,11.34,11.34,0,0,1,0-13.15C17.23-1.25,24.4-.87,28.24,2.71Z" style="fill:#8fc300"/>
            <path d="M16.42,7.06a1.83,1.83,0,0,1,2.09-.44,1.84,1.84,0,0,1,.89,1.63,1.68,1.68,0,0,1-.58,1.33,1.92,1.92,0,0,1-2.24,0,1.76,1.76,0,0,1-.21-2.47Z" style="fill:#fff"/>
            <path d="M17.23,7.77a.63.63,0,0,1,.89-.08.66.66,0,0,1,.22.53.58.58,0,0,1-.22.49.71.71,0,0,1-.83,0,.65.65,0,0,1-.08-.92Z" style="fill:#1d1d1b"/>
            <path d="M24.49,7.06a1.83,1.83,0,0,1,2.09-.44,1.84,1.84,0,0,1,.89,1.63,1.68,1.68,0,0,1-.58,1.33,1.92,1.92,0,0,1-2.24,0,1.76,1.76,0,0,1-.21-2.47Z" style="fill:#fff"/>
            <path d="M25.3,7.77a.63.63,0,0,1,.89-.08.66.66,0,0,1,.22.53.58.58,0,0,1-.22.49.71.71,0,0,1-.83,0,.65.65,0,0,1-.08-.92Z" style="fill:#1d1d1b"/>
            <path d="M22.17,16.46c-1.89,0-3.66-1.28-3.78-2.78a.38.38,0,0,1,.75-.06h0c.09,1.14,1.64,2.17,3.19,2.08a3.37,3.37,0,0,0,2.33-1.07,1.72,1.72,0,0,0,.48-1.27.37.37,0,0,1,.33-.41h0a.4.4,0,0,1,.41.34,2.5,2.5,0,0,1-.67,1.84,4.13,4.13,0,0,1-2.85,1.32Z" style="fill:#fff"/>
        </symbol>
        <symbol viewBox="0 0 111.29 44.63" id="svg-team-3">
            <polygon points="98.58 3.65 103.98 13.4 111.28 8.81 106.25 1.04 98.58 3.65" style="fill:#ab50ce"/>
            <polygon points="99.36 2.61 105.23 12.67 111.2 8.88 105.81 0 99.36 2.61" style="fill:#82c0c9"/>
            <path d="M100.19,28.69c-1.34-3.21-5-6.34-9.13-5.76-4.76.67-6.59,5.84-6.83,6.53A8.87,8.87,0,0,0,84.81,37a9.34,9.34,0,0,0,10.52,3.87C100.32,39.17,102,33,100.19,28.69Z" style="fill:#df5a49"/>
            <path d="M90.12,12.92A6.18,6.18,0,0,0,86.41,19c.43,3.18,3.76,4.41,4.21,4.56a5.51,5.51,0,0,0,4.84-.38,6.39,6.39,0,0,0,2.49-7C96.86,12.84,92.88,11.72,90.12,12.92Z" style="fill:#4ad9d9"/>
            <path d="M89.26,16.93a1,1,0,0,1,1.08-.23,1,1,0,0,1,.46.85.92.92,0,0,1-.3.68,1,1,0,0,1-1.16,0,.9.9,0,0,1-.1-1.28Z" style="fill:#fff"/>
            <path d="M89.68,17.3a.34.34,0,0,1,.4-.08.38.38,0,0,1,.17.31.36.36,0,0,1-.11.26.38.38,0,0,1-.43,0,.32.32,0,0,1-.06-.46Z" style="fill:#1d1d1b"/>
            <path d="M94.74,16.93a1,1,0,0,1,1.08-.23,1,1,0,0,1,.46.85.92.92,0,0,1-.3.68,1,1,0,0,1-1.16,0,.9.9,0,0,1-.1-1.28Z" style="fill:#fff"/>
            <path d="M95.16,17.3a.35.35,0,0,1,.4-.08.38.38,0,0,1,.17.31.36.36,0,0,1-.11.26.38.38,0,0,1-.43,0,.33.33,0,0,1,0-.48Z" style="fill:#1d1d1b"/>
            <path d="M92.12,21.83a2.51,2.51,0,0,1-1.86-.89.24.24,0,0,1,0-.35.25.25,0,0,1,.35,0h0c1.27,1.35,2.55.56,3.67-.13l.19.18.13.21A5,5,0,0,1,92.12,21.83Z" style="fill:#fff"/>
            <path d="M96.82,26a.35.35,0,0,1-.34-.22.37.37,0,0,1,.18-.5,4.08,4.08,0,0,0,.87-.57c1.12-1,1.66-2.73,2.13-4.24a40.64,40.64,0,0,0,2-8.78h-.14a.36.36,0,0,1-.47-.37,3.2,3.2,0,0,1,.09-.75,1.59,1.59,0,0,1-.73-.31.34.34,0,0,1-.15-.33.83.83,0,0,1,.71-.77h0a1.3,1.3,0,0,1,.35-.43h0a.77.77,0,0,1,.22-.29,1.81,1.81,0,0,1,.17-.59.34.34,0,0,1,.37-.23.4.4,0,0,1,.34.27,3.43,3.43,0,0,1,.07.56l.06.05.14-.08a.3.3,0,0,1,.34,0h.09a.36.36,0,0,1,.41.29s0,0,0,.08a3.35,3.35,0,0,1-.07.71,1.27,1.27,0,0,1-.2.63,3,3,0,0,1-.85,1.15,39,39,0,0,1-2.07,9.43c-.45,1.49-1,3.39-2.34,4.54a4.6,4.6,0,0,1-1.06.69A.38.38,0,0,1,96.82,26Z" style="fill:#df5a49"/>
            <path d="M73.17,29.54a1.31,1.31,0,0,1-.28,0,3.38,3.38,0,0,1-.71-.1.39.39,0,0,1-.24-.19.34.34,0,0,1,0-.31v-.08a.38.38,0,0,1,.09-.34l.12-.11v-.07a2.24,2.24,0,0,1-.53-.2.38.38,0,0,1-.19-.4.35.35,0,0,1,.32-.3,1.62,1.62,0,0,1,.62,0,.63.63,0,0,1,.33-.15h0a1.21,1.21,0,0,1,.5-.23h0a.85.85,0,0,1,.92-.5.38.38,0,0,1,.29.23,2.06,2.06,0,0,1,.12.78,4.8,4.8,0,0,1,.75.09.37.37,0,0,1,.26.21.4.4,0,0,1,0,.34,1.11,1.11,0,0,0-.07.13,39.83,39.83,0,0,0,9,.15,9.57,9.57,0,0,0,4.63-1.06,3.88,3.88,0,0,0,.76-.7.37.37,0,0,1,.51-.07h0a.39.39,0,0,1,.06.53,5.33,5.33,0,0,1-.93.85c-1.42,1-3.33,1.09-5,1.19A39,39,0,0,1,74.87,29a3,3,0,0,1-1.32.55A1.21,1.21,0,0,1,73.17,29.54Z" style="fill:#df5a49"/>
            <path d="M38,29.72a.38.38,0,0,1-.37-.29c0-.08-.17-.16-.45-.25-5.1-1.58-8.94-5.58-12.33-9.11a.36.36,0,0,1,0-.51l0,0,.24-.21a.37.37,0,0,1,.52,0h0a.39.39,0,0,1,0,.48c3.26,3.39,7,7.15,11.74,8.63.27.09.85.26,1,.8a.39.39,0,0,1-.29.45Z" style="fill:#87589e"/>
            <path d="M13.6,28.28c1.79-4.23,6.79-8.4,12.43-7.72,6.53.78,9.15,7.53,9.48,8.43.39,1.05,2,5.57-.65,9.88a13.15,13.15,0,0,1-14.37,5.29C13.63,42,11.21,34,13.6,28.28Z" style="fill:#45b29d"/>
            <path d="M30.25,6.91c2.22,2.07,3.68,6.15,2,9.54-2,3.92-6.75,4.05-7.39,4.05a7.3,7.3,0,0,1-6-2.63,8.77,8.77,0,0,1,0-10.2C21.7,3.84,27.26,4.14,30.25,6.91Z" style="fill:#fdc300"/>
            <path d="M21.07,10.29a1.29,1.29,0,0,1,1.82-.2,1.43,1.43,0,0,1,0,2.12,1.5,1.5,0,0,1-1.74,0,1.34,1.34,0,0,1-.14-1.9Z" style="fill:#fff"/>
            <path d="M21.7,10.85a.5.5,0,0,1,.6-.13.56.56,0,0,1,.26.47.49.49,0,0,1-.17.38.56.56,0,0,1-.65,0,.51.51,0,0,1-.06-.71Z" style="fill:#1d1d1b"/>
            <path d="M27.33,10.29A1.44,1.44,0,0,1,29,10a1.47,1.47,0,0,1,.69,1.26,1.31,1.31,0,0,1-.46,1,1.46,1.46,0,0,1-1.73,0,1.35,1.35,0,0,1-.25-1.89A.27.27,0,0,1,27.33,10.29Z" style="fill:#fff"/>
            <path d="M28,10.85a.54.54,0,0,1,.61-.13.55.55,0,0,1,.25.47.49.49,0,0,1-.17.38.57.57,0,0,1-.64,0,.49.49,0,0,1-.07-.7Z" style="fill:#1d1d1b"/>
            <path d="M25.53,17.55c-1.44,0-2.8-1-2.89-2.12a.24.24,0,0,1,.22-.27h0a.26.26,0,0,1,.27.23c.07.91,1.3,1.72,2.52,1.66a2.65,2.65,0,0,0,1.83-.85,1.43,1.43,0,0,0,.39-1,.25.25,0,0,1,.25-.25.25.25,0,0,1,.25.25,1.92,1.92,0,0,1-.51,1.39,3.14,3.14,0,0,1-2.18,1Z" style="fill:#fff"/>
            <path d="M40.17,28.09a.93.93,0,0,1-.51-.21,11.17,11.17,0,0,0-4.41-1.63A13.51,13.51,0,0,1,31,24.79a.38.38,0,0,1-.13-.51h0a.36.36,0,0,1,.5-.13h0a12.89,12.89,0,0,0,4,1.36,12.07,12.07,0,0,1,4.7,1.75h0l4.46-5a1.94,1.94,0,0,1-.31-.84.75.75,0,0,1,.2-.78,2.63,2.63,0,0,1-.06-.39.37.37,0,0,1,.09-.28.39.39,0,0,1,.27-.13,2,2,0,0,1,.79.14h.13a.8.8,0,0,1,.37-.18.38.38,0,0,1,.38.15.52.52,0,0,1,.16.06.37.37,0,0,1,.34-.16,1.41,1.41,0,0,1,1.09.75.38.38,0,0,1-.14.48l.27.28a.38.38,0,0,1,0,.43.39.39,0,0,1-.39.19h-.19v.21a.4.4,0,0,1-.29.27.35.35,0,0,1-.36-.13l-.24-.3h-.06a.34.34,0,0,1-.3.09l-.21.05-.12.21a.85.85,0,0,1-.65.36h-.16l-4.53,5a1,1,0,0,1-.4.26Z" style="fill:#45b29d"/>
            <path d="M39.32,24.35c3-3.19,8.77-5.31,13.57-2.89,5.57,2.81,5.73,9.66,5.74,10.58s0,5.63-3.77,8.6a12.43,12.43,0,0,1-14.51.08C34.91,36.62,35.36,28.64,39.32,24.35Z" style="fill:#87589e"/>
            <path d="M54.17,11.49c.94,2.72.34,6.78-2.59,8.86-3.4,2.4-7.46.37-8,.09a6.91,6.91,0,0,1-3.84-4.87A8.34,8.34,0,0,1,44.28,7C48.39,5.1,52.92,7.83,54.17,11.49Z" style="fill:#b7c22c"/>
            <path d="M43.35,12.28A1.18,1.18,0,0,1,44.69,12a1.23,1.23,0,0,1,.57,1,1,1,0,0,1-.38.85,1.22,1.22,0,0,1-1.43,0A1.11,1.11,0,0,1,43.35,12.28Z" style="fill:#fff"/>
            <path d="M43.87,12.74a.44.44,0,0,1,.5-.11.47.47,0,0,1,.21.39.41.41,0,0,1-.67.32.41.41,0,0,1-.07-.58Z" style="fill:#1d1d1b"/>
            <path d="M50.14,12.28a1.07,1.07,0,0,1,1.51-.09A1.09,1.09,0,0,1,52,13a1,1,0,0,1-.38.85,1.22,1.22,0,0,1-1.43,0A1.11,1.11,0,0,1,50.14,12.28Z" style="fill:#fff"/>
            <path d="M50.66,12.74a.44.44,0,0,1,.5-.11.47.47,0,0,1,.21.39.41.41,0,0,1-.67.32.41.41,0,0,1-.07-.58Z" style="fill:#1d1d1b"/>
            <path d="M48.27,18.75a3.82,3.82,0,0,1-.68-.06,4.07,4.07,0,0,1-2.77-1.34.26.26,0,0,1,.39-.35h0a3.66,3.66,0,0,0,2.45,1.16,2.69,2.69,0,0,0,1.26-.06.91.91,0,0,0,.61-.81.25.25,0,0,1,.25-.25.25.25,0,0,1,.25.25,1.42,1.42,0,0,1-.93,1.31A2.39,2.39,0,0,1,48.27,18.75Z" style="fill:#fff"/>
            <path d="M8.23,27.65a2.54,2.54,0,0,1-.39,0,2.33,2.33,0,0,1-1.25-1.08,30.36,30.36,0,0,1-2.17-3.46l-.33-.64a12.71,12.71,0,0,0-.93-1.65q-.21-.29-.45-.57A6.68,6.68,0,0,1,1.9,19H1.76a.35.35,0,0,1-.25-.22.35.35,0,0,1-.4.13.34.34,0,0,1-.26-.31v0a.4.4,0,0,1-.37.11.37.37,0,0,1-.27-.27A4.91,4.91,0,0,1,0,16.83a.52.52,0,0,1,.38-.5.49.49,0,0,1,.45.16.5.5,0,0,1,0,.5.46.46,0,0,1-.12.12v.38a4.15,4.15,0,0,0,.29-.6c.05-.2.1-.4.17-.6a.36.36,0,0,1,.44-.3h0a.4.4,0,0,1,.28.37H2a.38.38,0,0,1,.26.2.34.34,0,0,1,.29-.11.37.37,0,0,1,.35.34v.26h0a.37.37,0,0,1,.39-.22.37.37,0,0,1,.33.35v.25a.47.47,0,0,1,.15.06.41.41,0,0,1,.16.33,3.05,3.05,0,0,1-.57,1.62.44.44,0,0,1-.22.14v.05c.16.2.32.4.47.61a14.38,14.38,0,0,1,1,1.75c.1.21.2.41.31.62a32.91,32.91,0,0,0,2.28,3.47,1.7,1.7,0,0,0,.82.79,1.65,1.65,0,0,0,.79-.08l7.58-1.86a.36.36,0,0,1,.44.27h0a.38.38,0,0,1-.27.46L9,27.53A3.51,3.51,0,0,1,8.23,27.65ZM2.8,19.08v.05a.29.29,0,0,1,0-.13Z" style="fill:#45b29d"/>
            <path d="M68.76,30.53a19.42,19.42,0,0,1-6.7-1.35,34.3,34.3,0,0,1-7.31-3.74,5.93,5.93,0,0,1-2.19-2.2.38.38,0,0,1,.16-.5h0a.38.38,0,0,1,.5.17,5.06,5.06,0,0,0,1.93,1.91,33.28,33.28,0,0,0,7.15,3.66c3.7,1.36,6.9,1.65,9.54.87a.25.25,0,0,1-.08-.1.38.38,0,0,1-.19-.05H71.5a.36.36,0,0,1-.31-.21.35.35,0,0,1,0-.37,2.66,2.66,0,0,1,.66-.72.82.82,0,0,1,0-.44.86.86,0,0,1,.66-.67,1,1,0,0,1,1,.3,1.71,1.71,0,0,1,.11.14,3.84,3.84,0,0,1,.48,0,.39.39,0,0,1,.31.26.35.35,0,0,1,0,.33h.12a.36.36,0,0,1,.31.25h0a.35.35,0,0,1,.26.2.38.38,0,0,1,0,.33,2.17,2.17,0,0,1-.5.62v.06a.39.39,0,0,1-.23.48h-.11a6.76,6.76,0,0,1-.93.31l-.41.14a.37.37,0,0,1-.29,0,.35.35,0,0,1-.3-.3A11.48,11.48,0,0,1,68.76,30.53Z" style="fill:#87589e"/>
        </symbol>
        <symbol viewBox="0 0 62.18 49.99" id="svg-team-4">
            <path d="M23.07,24.52c4-4.36,12-7.25,18.52-3.94C49.2,24.41,49.42,33.76,49.42,35c0,1.45,0,7.69-5.14,11.74a17,17,0,0,1-19.8.12C17,41.27,17.66,30.37,23.07,24.52Z" style="fill:#2fcca4"/>
            <path d="M43.34,7c1.28,3.72.46,9.26-3.54,12.09-4.64,3.28-10.18.52-10.91.13a9.52,9.52,0,0,1-5.24-6.65A11.4,11.4,0,0,1,29.83.86C35.45-1.76,41.63,2,43.34,7Z" style="fill:#df5a49"/>
            <path d="M28.57,8a1.63,1.63,0,0,1,1.83-.39A1.6,1.6,0,0,1,31.17,9a1.45,1.45,0,0,1-.51,1.16,1.68,1.68,0,0,1-2,0,1.53,1.53,0,0,1-.14-2.15Z" style="fill:#fff"/>
            <path d="M29.27,8.67A.56.56,0,0,1,30,8.45a.54.54,0,0,1,.26.6.52.52,0,0,1-.19.43.63.63,0,0,1-.72,0,.57.57,0,0,1-.09-.8Z" style="fill:#1d1d1b"/>
            <path d="M37.84,8a1.63,1.63,0,0,1,1.83-.39A1.6,1.6,0,0,1,40.44,9a1.45,1.45,0,0,1-.51,1.16,1.68,1.68,0,0,1-2,0,1.53,1.53,0,0,1-.14-2.15Z" style="fill:#fff"/>
            <path d="M38.55,8.67a.6.6,0,0,1,.68-.15.59.59,0,0,1,.28.53.52.52,0,0,1-.19.43.63.63,0,0,1-.72,0,.57.57,0,0,1-.06-.79Z" style="fill:#1d1d1b"/>
            <path d="M35.28,16.9a7.28,7.28,0,0,1-.93-.07A5.62,5.62,0,0,1,30.55,15a.37.37,0,1,1,.59-.46,4.93,4.93,0,0,0,3.32,1.56,3.38,3.38,0,0,0,1.7-.07A1.2,1.2,0,0,0,37,14.94a.38.38,0,1,1,.75-.06,1.89,1.89,0,0,1-1.29,1.83A3,3,0,0,1,35.28,16.9Z" style="fill:#fff"/>
            <path d="M21.25,39.38a.51.51,0,0,1-.49-.4c0-.1-.23-.22-.63-.34C13.18,36.49,7.94,31,3.31,26.21a.5.5,0,0,1-.14-.37.46.46,0,0,1,.16-.35l.33-.29a.51.51,0,0,1,.71.08.49.49,0,0,1,0,.6c4.46,4.64,9.52,9.79,16.05,11.8.37.12,1.15.36,1.31,1.09a.49.49,0,0,1-.37.6h-.12Z" style="fill:#2fcca4"/>
            <path d="M3.69,27.38a.6.6,0,0,1-.28-.08L3,27l-.14.11a.54.54,0,0,1-.57-.06c-.13-.11-.25-.23-.37-.35a.56.56,0,0,1-.29-.12A4.6,4.6,0,0,1,.49,25a3.23,3.23,0,0,1-.2-.42l-.18-.26a.52.52,0,0,1,0-.51,1.09,1.09,0,0,0-.1-.25A.53.53,0,0,1,.23,23a.53.53,0,0,1,.46,0L.76,23a.51.51,0,0,1,.53,0l.11-.08a.49.49,0,0,1,.54.07l.35.3-.14-.43a.5.5,0,0,1,.25-.6.49.49,0,0,1,.24,0v-.36a.5.5,0,0,1,.3-.42.22.22,0,0,1,.16,0,5.6,5.6,0,0,1,1.16-2.21.5.5,0,0,1,.82.55,6.46,6.46,0,0,0-.68,2.48c.09.2.17.39.25.59a6.2,6.2,0,0,1,1,2.33.49.49,0,0,1-.29.55.54.54,0,0,1-.31,0,.47.47,0,0,1-.29.18.51.51,0,0,1-.38-.06h0a.48.48,0,0,1-.13.59.45.45,0,0,1-.14.26.51.51,0,0,1-.11.7.53.53,0,0,1-.3.09Z" style="fill:#2fcca4"/>
            <path d="M51.51,39.67a.49.49,0,0,1-.32-.12,14.14,14.14,0,0,0-9.13-3.27h0a.51.51,0,0,1-.5-.5.49.49,0,0,1,.48-.5h0a15,15,0,0,1,9.29,3.11l7.94-16h0a.51.51,0,0,1-.33-.34l-.06-.25a1,1,0,0,1-.35,0,.89.89,0,0,1-.66-.45,1.72,1.72,0,0,1,0-1.44l.18-.37a1.21,1.21,0,0,1,.13-.79,1.05,1.05,0,0,1,.25-.3,6,6,0,0,1,1-1.88.49.49,0,0,1,.54-.15.48.48,0,0,1,.34.41,10,10,0,0,1,1-1.14.5.5,0,0,1,.57-.1.5.5,0,0,1,.28.5,7.1,7.1,0,0,1-.52,2.17,2.06,2.06,0,0,1,.19,1.38v.11a4.71,4.71,0,0,1-.39,1,4.26,4.26,0,0,0-.36,1,.5.5,0,0,1-.56.41h0L52,39.39a.47.47,0,0,1-.34.27Z" style="fill:#2fcca4"/>
            <path d="M3.18,14.66v17s56.55,1.89,56.55.94-.94-19.79-.94-19.79Z" style="fill:#ebeae5"/>
            <polygon points="3.65 15.13 30.99 22.67 59.26 12.3 3.65 15.13" style="fill:#ccc"/>
            <path d="M15.74,25.81c0-.31-.08-.5-.22-.52h-.21v-.37H16.9v.37h-.21c-.13,0-.21.21-.21.52v2.28c0,.31.05.5.22.53h.21V29h-1.6v-.38h.21c.16,0,.22-.22.22-.53Z" style="fill:#22a8b5"/>
            <path d="M18.44,28.09c0,.31,0,.49.22.53h.14V29H17.6v-.38h.21c.15,0,.21-.22.21-.53V25.81c0-.31-.08-.5-.21-.52H17.6v-.37h1.47l.87,2.36h0V25.81c0-.31-.08-.5-.21-.52h-.21v-.37h1.26v.37h-.2c-.14,0-.22.21-.22.52V29h-.75l-1.16-3.22h0Z" style="fill:#22a8b5"/>
            <path d="M21.5,24.88h1.6v.37h-.21c-.15,0-.2.15-.15.43L23.2,28l.59-2.24c.09-.28,0-.44-.14-.46h-.21v-.37h1.27v.37H24.5c-.14,0-.21.28-.33.72l-.82,3h-.72L22,25.72c-.05-.22-.15-.41-.28-.43h-.21Z" style="fill:#22a8b5"/>
            <path d="M25.84,25.81c0-.31-.08-.5-.22-.52h-.21v-.37H27v.37H26.8c-.13,0-.21.21-.21.52v2.28c0,.31.05.5.22.53H27V29H25.41v-.38h.21c.16,0,.22-.22.22-.53Z" style="fill:#22a8b5"/>
            <path d="M27.72,24.88h2.84v1.65h-.39v-.37c0-.39-.1-.82-.39-.82s-.27.39-.27.64v2.11c0,.31,0,.5.22.53h.21V29h-1.6v-.38h.21c.17,0,.22-.22.22-.53V26c0-.25,0-.64-.28-.64s-.38.43-.38.82v.37h-.39Z" style="fill:#22a8b5"/>
            <path d="M32,27.68l0,.2c-.1.39,0,.68.14.73h.17V29H30.84v-.38H31c.17-.05.28-.25.46-.93l.76-2.8h.61l.78,3c.12.46.23.65.35.69l.18.07V29H32.5v-.38h.17c.17-.05.25-.23.14-.73v-.2Zm.67-.58-.21-1h0l-.28,1Z" style="fill:#22a8b5"/>
            <path d="M34.43,24.88h2.84v1.65h-.39v-.37c0-.39-.1-.82-.38-.82s-.28.39-.28.64v2.11c0,.31,0,.5.22.53h.21V29H35v-.38h.21c.17,0,.22-.22.22-.53V26c0-.25,0-.64-.28-.64s-.38.43-.38.82v.37h-.39Z" style="fill:#22a8b5"/>
            <path d="M38.4,25.81c0-.31-.08-.5-.21-.52H38v-.37h1.59v.37h-.21c-.13,0-.21.21-.21.52v2.28c0,.31,0,.5.22.53h.21V29H38v-.38h.21c.16,0,.21-.22.21-.53Z" style="fill:#22a8b5"/>
            <path d="M43.14,27.53a1.41,1.41,0,0,1-1.31,1.53h-.06a1.35,1.35,0,0,1-1.37-1.32V26.32a1.41,1.41,0,0,1,1.33-1.49h0a1.4,1.4,0,0,1,1.38,1.42.15.15,0,0,1,0,.07Zm-1.83.21c0,.49.07.91.46.91s.47-.46.47-.91V26c0-.37-.08-.73-.47-.73s-.46.36-.46.73Z" style="fill:#22a8b5"/>
            <path d="M44.82,28.09c0,.31,0,.49.22.53h.14V29H44v-.38h.21c.16,0,.21-.22.21-.53V25.81c0-.31-.08-.5-.21-.52H44v-.37h1.47l.87,2.36h0V25.81c0-.31-.08-.5-.21-.52h-.21v-.37H47.2v.37H47c-.14,0-.22.21-.22.52V29H46l-1.16-3.22h0Z" style="fill:#22a8b5"/>
        </symbol>
        <symbol viewBox="0 0 72.87 53.18" id="svg-team-5">
            <path d="M35.12,35.34a.5.5,0,0,1-.49-.39s-.06-.12-.51-.26C28,32.8,23.41,28,19.34,23.77a.54.54,0,0,1-.14-.36.53.53,0,0,1,.17-.36l.29-.25a.49.49,0,0,1,.7.06.5.5,0,0,1,.05.58c3.9,4,8.32,8.53,14,10.29a1.62,1.62,0,0,1,1.19,1,.5.5,0,0,1-.38.6h-.1Z" style="fill:#f29100"/>
            <path d="M25.85,8c2.66,2.48,4.41,7.36,2.38,11.41-2.36,4.7-8.08,4.85-8.85,4.85a8.78,8.78,0,0,1-7.17-3.14,10.53,10.53,0,0,1,0-12.21C15.62,4.31,22.28,4.67,25.85,8Z" style="fill:#0eb8ec"/>
            <path d="M5.93,33.57c2.14-5.06,8.13-10.06,14.88-9.25,7.82.94,10.94,9,11.34,10.09.47,1.26,2.46,6.68-.78,11.83a15.7,15.7,0,0,1-17.19,6.33C6,50,3.07,40.36,5.93,33.57Z" style="fill:#ffe62d"/>
            <path d="M14.87,12a1.72,1.72,0,0,1,1.94-.41,1.73,1.73,0,0,1,.82,1.52,1.47,1.47,0,0,1-.54,1.23,1.77,1.77,0,0,1-2.08,0,1.62,1.62,0,0,1-.19-2.28Z" style="fill:#fff"/>
            <path d="M15.62,12.7a.65.65,0,0,1,.72-.16.64.64,0,0,1,.31.57.58.58,0,0,1-.2.46.69.69,0,0,1-.78,0,.6.6,0,0,1-.07-.85Z" style="fill:#1d1d1b"/>
            <path d="M22.37,12a1.55,1.55,0,0,1,2.76,1.11,1.47,1.47,0,0,1-.54,1.23,1.77,1.77,0,0,1-2.08,0,1.62,1.62,0,0,1-.19-2.28Z" style="fill:#fff"/>
            <path d="M23.12,12.7a.65.65,0,0,1,.72-.16.64.64,0,0,1,.31.57.58.58,0,0,1-.2.46.69.69,0,0,1-.78,0,.6.6,0,0,1-.07-.85Z" style="fill:#1d1d1b"/>
            <path d="M20.2,20.8c-1.79,0-3.42-1.18-3.52-2.61a.36.36,0,0,1,.32-.4h0a.36.36,0,0,1,.4.32v0c.08,1.05,1.51,2,2.94,1.92a3.11,3.11,0,0,0,2.14-1,1.57,1.57,0,0,0,.44-1.16.4.4,0,0,1,.34-.41.37.37,0,0,1,.41.34,2.39,2.39,0,0,1-.62,1.73A3.89,3.89,0,0,1,20.4,20.8Z" style="fill:#fff"/>
            <path d="M37.74,33.38a1,1,0,0,1-.65-.26,13.55,13.55,0,0,0-5.25-1.93,16.38,16.38,0,0,1-5.14-1.75.5.5,0,1,1,.52-.86,15.32,15.32,0,0,0,4.83,1.63,14.31,14.31,0,0,1,5.64,2.11h0L43,26.45a2.62,2.62,0,0,1-.36-1,1,1,0,0,1,.24-.95,1,1,0,0,0-.07-.45.5.5,0,0,1,.13-.37.53.53,0,0,1,.35-.17,2.17,2.17,0,0,1,.94.16h.15a1,1,0,0,1,.47-.22.49.49,0,0,1,.48.17.44.44,0,0,1,.16.06.52.52,0,0,1,.42-.17,1.67,1.67,0,0,1,1.35.92.52.52,0,0,1-.14.61,3.83,3.83,0,0,1,.28.29.5.5,0,0,1-.45.83h-.18v.2a.5.5,0,0,1-.61.36.56.56,0,0,1-.26-.17l-.26-.33h0l-.06.05a.46.46,0,0,1-.39.12H45a.92.92,0,0,1-.13.24A1.08,1.08,0,0,1,44,27h-.17l-5.41,6a1,1,0,0,1-.49.33A.59.59,0,0,1,37.74,33.38Z" style="fill:#ffe62d"/>
            <path d="M36.72,28.86C40.26,25,47.21,22.51,53,25.41c6.67,3.35,6.86,11.56,6.86,12.65,0,1.27,0,6.74-4.5,10.3a14.91,14.91,0,0,1-17.37.1C31.44,43.54,32,34,36.72,28.86Z" style="fill:#f19124"/>
            <path d="M54.49,13.47c1.12,3.26.4,8.12-3.11,10.6-4.06,2.88-8.92.45-9.56.11a8.32,8.32,0,0,1-4.59-5.83A10,10,0,0,1,42.65,8.12C47.57,5.82,53,9.09,54.49,13.47Z" style="fill:#87589e"/>
            <path d="M41.54,14.42a1.4,1.4,0,0,1,1.6-.34,1.42,1.42,0,0,1,.68,1.24,1.29,1.29,0,0,1-.45,1,1.46,1.46,0,0,1-1.71,0,1.31,1.31,0,0,1-.15-1.86Z" style="fill:#fff"/>
            <path d="M42.16,15a.54.54,0,0,1,.59-.13.56.56,0,0,1,.26.47.46.46,0,0,1-.17.38.57.57,0,0,1-.64,0,.49.49,0,0,1-.07-.69Z" style="fill:#1d1d1b"/>
            <path d="M49.66,14.42a1.29,1.29,0,0,1,1.81-.19A1.27,1.27,0,0,1,52,15.32a1.29,1.29,0,0,1-.45,1,1.46,1.46,0,0,1-1.71,0,1.32,1.32,0,0,1-.15-1.87Z" style="fill:#fff"/>
            <path d="M50.29,15a.47.47,0,0,1,.66-.09.48.48,0,0,1,.18.43.45.45,0,0,1-.16.38.57.57,0,0,1-.64,0,.49.49,0,0,1-.07-.69Z" style="fill:#1d1d1b"/>
            <path d="M47.43,22.23a5.69,5.69,0,0,1-.83-.07,5,5,0,0,1-3.36-1.63.39.39,0,0,1,0-.54.38.38,0,0,1,.54,0l.06.07a4.28,4.28,0,0,0,2.88,1.36,3,3,0,0,0,1.47-.06,1,1,0,0,0,.68-.9.37.37,0,0,1,.35-.39.36.36,0,0,1,.39.34,1.72,1.72,0,0,1-1.15,1.65A2.73,2.73,0,0,1,47.43,22.23Z" style="fill:#fff"/>
            <polygon points="1.31 2.29 7.25 0 8.5 12.08 2.35 12.19 1.31 2.29" style="fill:#fcea0d"/>
            <polygon points="1.21 2.4 2.15 13.75 9.54 13.02 8.81 1.35 1.21 2.4" style="fill:#f8b133"/>
            <path d="M8.43,32.85a.47.47,0,0,1-.32-.12L1,26.65a2.89,2.89,0,0,1-.89-1.1,2.88,2.88,0,0,1,.18-2A41.81,41.81,0,0,1,2.16,19l.39-.76a13.88,13.88,0,0,0,1-2c.09-.27.17-.55.24-.83a10,10,0,0,1,.55-1.59.33.33,0,0,1-.07-.13.56.56,0,0,1,0-.36.49.49,0,0,1-.39-.59A.46.46,0,0,1,4,12.5a.5.5,0,0,1-.3-.82,5.76,5.76,0,0,1,1.56-1.31.67.67,0,0,1,.81,0A.6.6,0,0,1,6.2,11a.58.58,0,0,1-.5.41H5.49l-.19.13a3.71,3.71,0,0,0,.58-.11c.23-.1.47-.18.71-.26A.47.47,0,0,1,7,12a.09.09,0,0,1,0,.07.5.5,0,0,1,0,.38.44.44,0,0,1,.27.21.49.49,0,0,1-.09.65L7,13.48a.52.52,0,0,1,.46.27.48.48,0,0,1-.13.62l-.21.16a.49.49,0,0,1,0,.17.54.54,0,0,1-.23.43,3.63,3.63,0,0,1-2,.57.48.48,0,0,1-.26-.07c-.09.29-.17.59-.27.88a14.54,14.54,0,0,1-1,2.2l-.39.74a41.4,41.4,0,0,0-1.81,4.42,2,2,0,0,0-.19,1.3,2.06,2.06,0,0,0,.61.7L8.76,32a.51.51,0,0,1,.05.71A.49.49,0,0,1,8.43,32.85Z" style="fill:#ffe62d"/>
            <path d="M56,3.54s2.09,9.17,2.4,9S72.14,8.75,72.14,8.75L69.85.94Z" style="fill:#5bc4f1"/>
            <polygon points="55.58 4.58 57.87 13.02 72.87 9.06 70.26 0.21 55.58 4.58" style="fill:#009ee2"/>
            <path d="M51.32,32.12a.5.5,0,0,1-.07-1h0a6.33,6.33,0,0,0,2.86-1.45A40.22,40.22,0,0,0,61,23c2.92-3.64,4.47-7.12,4.6-10.37h0a.64.64,0,0,1-.13.19.11.11,0,0,1,0,.08.47.47,0,0,1-.39.31.49.49,0,0,1-.46-.18A3.87,3.87,0,0,1,64,12a1,1,0,0,1-.5-.13,1.1,1.1,0,0,1-.54-1,1.26,1.26,0,0,1,.76-1.1l.18-.06a4.6,4.6,0,0,1,.19-.52.45.45,0,0,1,.46-.29A.52.52,0,0,1,64.9,9V9a.5.5,0,0,1,.44-.3h0a.51.51,0,0,1,.7-.17l.09.07a2.4,2.4,0,0,1,.51.78h0a.52.52,0,0,1,.5.5V10a7.62,7.62,0,0,1,0,1.17v.52a.67.67,0,0,1-.59.6c0,3.57-1.67,7.37-4.84,11.31a40.69,40.69,0,0,1-7,6.88,7.06,7.06,0,0,1-3.35,1.65Z" style="fill:#f29100"/>
        </symbol>
    </defs>
</svg>
